<svg width="706" height="50" viewBox="0 0 706 50" fill="none" xmlns="http://www.w3.org/2000/svg">
<path d="M2.41785 15.1407C4.7452 15.1407 7.07249 15.1407 9.40215 15.1407C9.70432 15.1407 9.78283 15.207 9.80128 15.4115C9.90278 16.4438 10.0158 17.4762 10.1265 18.5069C10.2618 19.7869 10.3986 21.0657 10.537 22.3434C10.5716 22.6601 10.6017 22.9789 10.6363 23.3076C10.7608 23.2821 10.7908 23.2003 10.8346 23.1373C15.4479 17.219 20.2916 11.3825 25.1769 5.59026C25.2371 5.51872 25.3479 5.45915 25.3246 5.35693H27.772C27.2807 6.07415 26.7964 6.79304 26.2981 7.50513C22.383 13.102 18.5387 18.7239 14.7651 24.3707C13.9785 25.5512 13.2035 26.7353 12.4284 27.9193C12.4025 27.9718 12.3532 28.016 12.2886 28.0451C12.2241 28.0741 12.1482 28.0862 12.0732 28.0794C10.4294 28.0794 8.78556 28.0794 7.14171 28.0794C6.97104 28.0794 6.8972 28.0573 6.87873 27.9091C6.69652 26.5803 6.50505 25.2532 6.30899 23.9244C6.1037 22.5087 5.88467 21.093 5.68629 19.6789C5.61177 18.8501 5.43643 18.028 5.16257 17.2224C5.02009 16.7568 4.6756 16.3383 4.1813 16.0308C3.68703 15.7232 3.0702 15.5434 2.42474 15.5188L2.41785 15.1407Z" fill="#3A57A5"/>
<path d="M37.8561 43.8084C38.7233 42.7709 39.5352 41.7045 40.4765 40.7063C40.7289 40.4674 40.8846 40.1806 40.9255 39.879C40.9663 39.5775 40.8904 39.2736 40.7069 39.0027C39.9436 37.604 39.3092 36.1697 38.608 34.7522C38.5135 34.5649 38.5643 34.5256 38.8179 34.5272C39.6346 34.5272 40.4511 34.5425 41.2652 34.5272C41.5558 34.5272 41.6574 34.609 41.7265 34.7929C42.1119 35.7113 42.5084 36.6261 42.9052 37.5409C42.9308 37.5854 42.9601 37.6284 42.993 37.6702L44.2524 36.1815C44.6629 35.6943 45.0805 35.2086 45.484 34.7163C45.5225 34.6577 45.5841 34.6092 45.6608 34.5768C45.7372 34.5447 45.8252 34.5302 45.9132 34.5358C46.6811 34.5358 47.4492 34.5358 48.2198 34.5358C48.3351 34.5358 48.4918 34.4931 48.5566 34.5733C48.6211 34.6533 48.485 34.7301 48.4275 34.7999C46.3668 37.2484 44.3063 39.6967 42.2456 42.1442C41.7843 42.6995 41.2744 43.2359 40.8617 43.8186L37.8561 43.8084Z" fill="#3B57A6"/>
<path d="M22.9099 28.0743C21.5674 28.0743 20.2204 28.0743 18.8779 28.0743C18.615 28.0743 18.5734 28.0318 18.615 27.8427C18.9287 26.4321 19.2238 25.018 19.5375 23.6041C19.8128 22.3129 20.0888 21.0214 20.3656 19.73C20.5709 18.7777 20.7831 17.829 20.9792 16.8767C21.0114 16.725 21.076 16.6772 21.2906 16.6772C24.0031 16.6829 26.7151 16.6829 29.4262 16.6772C29.6868 16.6772 29.7582 16.7249 29.7166 16.9174C29.5628 17.5795 29.4214 18.2423 29.2922 18.9055C29.2531 19.1134 29.1515 19.1884 28.8423 19.1834C27.4999 19.168 26.1551 19.1834 24.8104 19.1732C24.5613 19.1732 24.453 19.2107 24.416 19.4032C24.3285 19.8937 24.2199 20.3827 24.107 20.8698C24.0654 21.0402 24.107 21.105 24.3814 21.1016C25.6663 21.0879 26.9487 21.1016 28.2313 21.093C28.4803 21.093 28.5862 21.093 28.5241 21.3332C28.3464 22.0146 28.2081 22.7096 28.0836 23.3996C28.0512 23.57 27.9637 23.5955 27.7652 23.5939C26.469 23.5939 25.1725 23.5939 23.8786 23.5939C23.611 23.5939 23.5027 23.65 23.4681 23.8443C23.3712 24.3554 23.272 24.8766 23.1429 25.3877C23.0944 25.5786 23.1821 25.5939 23.3897 25.5921C24.7344 25.5921 26.0768 25.6041 27.4216 25.582C27.8067 25.582 27.8459 25.6671 27.7884 25.9039C27.6346 26.5752 27.4917 27.2468 27.3594 27.9193C27.327 28.1014 27.1793 28.0743 27.0294 28.0743H22.9099Z" fill="#3B57A6"/>
<path d="M72.8297 28.076C71.4966 28.076 70.1656 28.0674 68.8346 28.076C68.5326 28.076 68.4886 28.0214 68.5323 27.8135C68.8208 26.5324 69.0906 25.248 69.3628 23.9669C69.6348 22.6858 69.9163 21.3842 70.1955 20.093C70.4262 19.0214 70.6569 17.9482 70.8875 16.875C70.9221 16.7131 71.0028 16.679 71.2057 16.6807C73.9182 16.6807 76.6303 16.6807 79.3411 16.6807C79.618 16.6807 79.6596 16.7506 79.618 16.9278C79.4642 17.599 79.3199 18.2703 79.1845 18.9414C79.1521 19.1117 79.0875 19.1899 78.8085 19.1865C77.4405 19.1714 76.0727 19.1867 74.705 19.1732C74.4419 19.1732 74.3588 19.2328 74.3242 19.4115C74.2321 19.8921 74.1259 20.3724 74.013 20.8512C73.9714 21.0215 73.9944 21.1082 74.299 21.1048C75.5836 21.0878 76.8663 21.1049 78.1511 21.093C78.4279 21.093 78.4831 21.1287 78.4301 21.3417C78.257 22.0232 78.1095 22.7044 77.9918 23.3858C77.9572 23.5887 77.8397 23.5989 77.625 23.5989C76.3404 23.5989 75.058 23.5989 73.7732 23.5903C73.4871 23.5903 73.404 23.6705 73.3694 23.8476C73.2678 24.3587 73.1779 24.8819 73.0466 25.393C72.9958 25.5889 73.0855 25.5939 73.2908 25.5939C74.6748 25.5939 76.0727 25.5939 77.4659 25.5939C77.6849 25.5939 77.7497 25.6108 77.6965 25.7965C77.5283 26.5019 77.3805 27.2089 77.249 27.9174C77.2144 28.0878 77.0761 28.076 76.9192 28.076H72.8297Z" fill="#3B57A6"/>
<path d="M57.2288 16.6898C58.5852 16.6898 59.9413 16.6898 61.2953 16.6898C61.5629 16.6898 61.6391 16.7154 61.5837 16.9368C61.4106 17.6183 61.2653 18.2996 61.1454 18.9811C61.1108 19.177 61.0049 19.1957 60.7834 19.1957C59.3995 19.1957 58.0155 19.1957 56.6429 19.1957C56.3663 19.1957 56.2278 19.2161 56.1816 19.463C56.1149 19.9452 55.9785 20.4223 55.861 20.8993C55.8173 21.0696 55.891 21.1241 56.1333 21.1241C57.3949 21.1155 58.6543 21.1243 59.9137 21.1157C60.179 21.1157 60.2273 21.1616 60.1836 21.3491C60.0298 22.0452 59.883 22.7432 59.743 23.4429C59.7085 23.6132 59.5699 23.613 59.3925 23.613C58.1446 23.613 56.8944 23.6216 55.6487 23.6029C55.3443 23.6029 55.266 23.6812 55.2268 23.8704C54.9592 25.1446 54.6802 26.4257 54.4171 27.6932C54.3342 28.0834 54.348 28.085 53.8313 28.085C52.7749 28.085 51.7205 28.085 50.6642 28.085C50.3873 28.085 50.346 28.0202 50.3852 27.8396C50.911 25.4432 51.4333 23.0454 51.9514 20.6455C52.2212 19.3986 52.4932 18.153 52.7425 16.8975C52.7771 16.7169 52.867 16.6846 53.0815 16.6846C54.4703 16.6897 55.8494 16.6898 57.2288 16.6898Z" fill="#3B57A6"/>
<path d="M70.5586 38.1051C71.7349 38.5608 73.041 38.8038 74.3691 38.8138C74.8974 38.8269 75.4235 38.7563 75.9121 38.6076C76.128 38.5715 76.3231 38.4867 76.4711 38.3651C76.6188 38.2435 76.7117 38.091 76.7371 37.9287C76.7625 37.7662 76.7189 37.6022 76.6126 37.459C76.5059 37.3158 76.3418 37.2005 76.1428 37.129C75.7158 36.9162 75.2625 36.7335 74.7888 36.5837C73.9462 36.3237 73.1764 35.9499 72.5192 35.4815C71.9745 35.0746 71.6423 34.5383 71.5811 33.9678C71.5197 33.3974 71.7337 32.8294 72.1846 32.364C72.9421 31.5538 74.0913 30.9887 75.3957 30.7849C77.2037 30.4399 79.107 30.4776 80.8875 30.8938C81.1181 30.9449 81.1781 31.0249 81.1343 31.1971C80.9866 31.7694 80.8437 32.3419 80.726 32.9176C80.6846 33.1187 80.6201 33.151 80.3686 33.071C79.2857 32.7092 78.0869 32.5788 76.9087 32.6946C76.5632 32.7239 76.2315 32.8119 75.9399 32.9517C75.8033 33.001 75.687 33.0762 75.6034 33.1699C75.5197 33.2635 75.4716 33.3721 75.4641 33.4842C75.4564 33.5962 75.4897 33.7078 75.5606 33.8071C75.6312 33.9063 75.7368 33.9899 75.8662 34.0488C76.3674 34.3206 76.9092 34.5492 77.4808 34.7303C78.0773 34.9365 78.6479 35.1817 79.1853 35.4628C79.585 35.6794 79.9196 35.9547 80.1679 36.2715C80.4165 36.5883 80.5734 36.9397 80.6288 37.3035C80.6841 37.6672 80.637 38.0356 80.4902 38.3853C80.3435 38.7349 80.1002 39.0581 79.7758 39.3349C78.9051 40.1142 77.6706 40.6242 76.3159 40.7642C74.342 41.0413 72.305 40.9424 70.3971 40.4765C70.1365 40.4151 70.0511 40.3503 70.1111 40.1238C70.2864 39.4646 70.4041 38.7985 70.5586 38.1051Z" fill="#3B57A6"/>
<path d="M56.9389 36.1392L57.3311 37.519C57.6495 36.9245 57.9448 36.3794 58.2354 35.8326C59.1002 34.2056 59.9677 32.582 60.8234 30.9517C60.8435 30.8806 60.8996 30.8177 60.9801 30.776C61.0606 30.7342 61.1595 30.7167 61.2569 30.727C62.4448 30.7372 63.6329 30.727 64.8761 30.727C64.7078 31.0199 64.5577 31.2926 64.3986 31.5633C62.6641 34.5469 60.9303 37.531 59.1972 40.5158C59.1674 40.5938 59.0997 40.661 59.0069 40.7044C58.914 40.7477 58.8026 40.7642 58.6943 40.7508C57.6009 40.7422 56.51 40.7508 55.4167 40.7508C55.2068 40.7508 55.1053 40.7185 55.0431 40.5515C53.9851 37.7213 52.9193 34.892 51.8461 32.0642C52.0214 32.0181 52.1459 32.0999 52.275 32.1595C54.1152 32.9556 55.6215 34.1119 56.6275 35.5004C56.7061 35.629 56.7719 35.7615 56.8236 35.8972C56.8686 35.9761 56.907 36.057 56.9389 36.1392Z" fill="#3B57A6"/>
<path d="M45.3714 28.0762C44.7972 28.0762 44.2181 28.0762 43.6436 28.0762C43.4316 28.0762 43.3762 28.0319 43.4132 27.8803C43.8175 26.0507 44.2174 24.2203 44.6127 22.3896C45.0078 20.5587 45.3922 18.7275 45.766 16.8956C45.7982 16.7439 45.8581 16.6826 46.0774 16.6826C47.2307 16.6826 48.4024 16.6826 49.5673 16.6826C49.7493 16.6826 49.8141 16.703 49.7771 16.8529C49.2728 19.18 48.7738 21.5082 48.28 23.8376C47.994 25.1732 47.7034 26.5055 47.4244 27.8412C47.3874 28.0116 47.2953 28.0744 47.053 28.066C46.4993 28.066 45.9343 28.0744 45.3714 28.0762Z" fill="#3B57A6"/>
<path d="M63.4878 28.0751C62.9365 28.0751 62.3831 28.0616 61.834 28.0751C61.5388 28.0853 61.5042 28.0137 61.5458 27.8228C61.7765 26.7769 62.0069 25.7292 62.2238 24.6833L63.1326 20.4687C63.3911 19.2762 63.6585 18.0835 63.9007 16.891C63.9377 16.707 64.0415 16.6865 64.2443 16.6865C65.3609 16.6865 66.4772 16.6985 67.5935 16.6865C67.8981 16.6865 67.9281 16.765 67.8865 16.949C67.6329 18.1096 67.3821 19.2698 67.1346 20.4294C66.807 21.9467 66.481 23.4646 66.1566 24.983C65.9467 25.9608 65.7252 26.9371 65.5245 27.9133C65.4946 28.0582 65.4184 28.0837 65.2501 28.0837C64.664 28.0717 64.076 28.0751 63.4878 28.0751Z" fill="#3B57A6"/>
<path d="M65.943 40.7506C65.4147 40.7506 64.8867 40.7404 64.3584 40.7506C64.0861 40.7592 64.031 40.686 64.0724 40.507C64.3262 39.4372 64.5728 38.3674 64.8197 37.2958C65.1964 35.6786 65.5716 34.0603 65.9454 32.4406C66.0654 31.9194 66.192 31.3979 66.3028 30.8749C66.3306 30.7438 66.4159 30.7217 66.5658 30.7217C67.6592 30.7217 68.7501 30.7217 69.8412 30.7217C70.0719 30.7217 70.0719 30.7983 70.0373 30.916C69.5944 32.8126 69.1517 34.7086 68.7087 36.6042C68.4089 37.892 68.1091 39.1801 67.8253 40.4697C67.7769 40.6792 67.7032 40.7745 67.3802 40.7576C66.9051 40.7303 66.4227 40.7506 65.943 40.7506Z" fill="#3B57A6"/>
<path d="M56.8141 35.9402C55.8419 34.3699 54.229 33.0636 52.2009 32.2043C52.0878 32.1549 51.9703 32.114 51.8503 32.0697C50.7116 31.5997 49.4949 31.2407 48.2311 31.0016C48.1204 30.9795 47.9499 31.0154 47.9707 30.85C47.9913 30.6849 48.1644 30.7256 48.2911 30.7256C50.2087 30.7256 52.1311 30.7256 54.0578 30.7256C54.4389 30.695 54.8211 30.7757 55.1229 30.9506C55.4244 31.1252 55.6216 31.3802 55.6724 31.6609C56.0876 33.0834 56.4797 34.5093 56.8811 35.9352C56.8557 35.9591 56.8373 35.9607 56.8141 35.9402Z" fill="#F79720"/>
<path d="M56.816 35.9415C56.8363 35.9401 56.8567 35.9401 56.8767 35.9415C56.9056 35.9704 56.9259 36.0033 56.9371 36.0381C56.9484 36.0728 56.9501 36.109 56.9423 36.1444C56.8417 36.0915 56.8767 36.0029 56.816 35.9415Z" fill="#E3A63A"/>
<path d="M11.672 10.0866H17.7545C18.1974 10.0866 18.3127 10.223 18.0936 10.5263C17.8744 10.8295 17.6484 11.0936 17.4223 11.3781L12.6315 17.3662C12.588 17.4372 12.5233 17.5002 12.4424 17.5502C12.3974 17.5721 12.3454 17.5845 12.2917 17.5862C12.238 17.588 12.1846 17.5789 12.1372 17.56C12.0899 17.5411 12.0504 17.5132 12.0229 17.4791C11.9954 17.445 11.981 17.4059 11.9811 17.3662C11.8889 16.5712 11.8012 15.7761 11.7181 14.9811C11.6351 14.1861 11.5581 13.4092 11.4874 12.6505C11.4853 12.5729 11.4495 12.4979 11.385 12.4366C11.3207 12.3752 11.2312 12.3308 11.1299 12.3099C9.25544 11.7307 7.38326 11.1457 5.51335 10.5552C5.39802 10.5194 5.25031 10.5058 5.19265 10.4019C5.16456 10.3673 5.15048 10.3275 5.1521 10.2871C5.15372 10.2468 5.17099 10.2075 5.20181 10.1742C5.23262 10.1408 5.27582 10.1147 5.32611 10.0989C5.3764 10.0831 5.43172 10.0783 5.48562 10.085L11.672 10.0866Z" fill="#F69820"/>
<path d="M94.2485 20.6999C94.1315 19.9935 93.7858 19.3181 93.2405 18.7311C92.6953 18.1443 91.9666 17.6633 91.116 17.3285C89.9934 16.9009 88.7463 16.6822 87.4833 16.6913C85.7925 16.6743 84.0993 16.6914 82.4085 16.6812C82.0671 16.6812 81.8921 16.7288 81.9059 17.0014C81.8981 17.1163 81.8756 17.2303 81.8389 17.342C81.4866 18.9638 81.1346 20.5858 80.7825 22.2076C80.379 24.0815 79.9798 25.9418 79.5715 27.8072C79.5253 28.0101 79.5715 28.0815 79.8783 28.0781C81.5113 28.0661 83.1421 28.0695 84.7751 28.0781C86.8621 28.0926 88.8987 27.6047 90.5771 26.6885C92.2553 25.7722 93.4843 24.4776 94.0778 22.9997C94.1168 22.7654 94.1992 22.5361 94.3223 22.3183V20.8293C94.2277 20.8088 94.2691 20.7493 94.2485 20.6999ZM90.1267 22.2024C90.058 22.7461 89.8312 23.2726 89.4618 23.7456C89.0923 24.2188 88.5889 24.6274 87.9862 24.9435C87.1126 25.3886 86.0688 25.6149 85.0082 25.5892C84.8295 25.5776 84.6496 25.5776 84.4709 25.5892C84.1017 25.6352 84.058 25.509 84.1063 25.2826C84.5401 23.3052 84.9683 21.3272 85.3911 19.3488C85.4119 19.2569 85.4095 19.1785 85.5848 19.1785C86.5894 19.1002 87.6032 19.2376 88.505 19.5738C89.1146 19.8306 89.5989 20.2229 89.8883 20.6949C90.1779 21.167 90.2582 21.6947 90.1175 22.2024H90.1267Z" fill="#3B57A6"/>
<path d="M38.7725 23.6285C38.6434 23.4733 38.6318 23.4324 38.8994 23.3727C40.044 23.1429 41.0469 22.6295 41.7404 21.9188C42.4335 21.2079 42.7749 20.3429 42.7075 19.4683C42.7566 18.9826 42.6103 18.4972 42.287 18.0727C41.9635 17.6485 41.4775 17.3041 40.89 17.0831C40.1552 16.8175 39.346 16.6828 38.5281 16.6897C36.4773 16.6743 34.4246 16.6897 32.374 16.6812C32.1434 16.6812 32.0558 16.7391 32.0234 16.8941C31.6651 18.5785 31.3046 20.262 30.9417 21.9452C30.5188 23.9247 30.0928 25.9042 29.6639 27.8838C29.6337 28.0185 29.6429 28.0747 29.8597 28.0747C31.036 28.0747 32.2125 28.0747 33.389 28.0747C33.5689 28.0747 33.6472 28.0338 33.6726 27.9044C33.7901 27.3115 33.9149 26.7119 34.0418 26.124C34.2125 25.3201 34.39 24.5176 34.5769 23.659C34.6598 23.7783 34.713 23.8447 34.7568 23.9145C35.6011 25.2229 36.4497 26.5261 37.2802 27.8329C37.3177 27.9138 37.3927 27.9822 37.4918 28.0265C37.5909 28.0708 37.7077 28.0877 37.8223 28.0747C39.0701 28.0627 40.318 28.0747 41.5658 28.0747H42.4447C42.3293 27.9317 42.2508 27.826 42.1678 27.7236C41.0353 26.3574 39.912 24.9895 38.7725 23.6285ZM38.2928 20.722C38.1144 21.0436 37.8088 21.3181 37.4156 21.5094C37.0225 21.7004 36.5607 21.7995 36.0899 21.7936C35.9217 21.7936 35.7556 21.7936 35.587 21.7936C34.9528 21.7936 34.9553 21.7935 35.0566 21.3438C35.2205 20.6231 35.3912 19.9026 35.5319 19.1785C35.5665 19.0081 35.6356 18.9518 35.8593 18.9656C36.0392 18.9722 36.2193 18.9722 36.3989 18.9656C36.6381 18.962 36.8769 18.9717 37.1141 18.9945C37.3665 19.0242 37.6059 19.0979 37.8124 19.2093C38.0191 19.3208 38.1867 19.4668 38.3018 19.6356C38.4171 19.8043 38.4761 19.9908 38.4746 20.1795C38.4729 20.3685 38.4106 20.5544 38.2928 20.722Z" fill="#3B57A6"/>
<path d="M93.5685 40.5396C93.2803 39.6112 93.0126 38.6809 92.7382 37.7491C92.0646 35.4777 91.392 33.2034 90.7198 30.9262C90.6761 30.7814 90.5907 30.7302 90.3784 30.7319C89.539 30.7421 88.6993 30.7507 87.8598 30.7319C87.3861 30.6989 86.9115 30.7861 86.514 30.9789C86.1166 31.1719 85.8199 31.4593 85.6731 31.7934C84.5936 33.6793 83.4541 35.5411 82.3375 37.415L80.3356 40.7762C81.6156 40.7762 82.8358 40.7762 84.0607 40.7762C84.2382 40.7762 84.2751 40.6996 84.3235 40.6059C84.522 40.2193 84.7343 39.8341 84.9234 39.4457C84.9427 39.3861 84.9915 39.3341 85.0602 39.2998C85.1289 39.2653 85.2125 39.2511 85.2947 39.26C86.6988 39.2657 88.1025 39.2657 89.5066 39.26C89.6773 39.26 89.7602 39.2893 89.7972 39.4305C89.8987 39.8121 90.0416 40.1852 90.1294 40.5686C90.1686 40.7389 90.2609 40.7814 90.48 40.7814C91.428 40.7814 92.3736 40.7712 93.3216 40.7814C93.5893 40.7832 93.6284 40.7269 93.5685 40.5396ZM88.9299 37.1987C88.0073 37.1987 87.0684 37.1987 86.0999 37.1987L88.0373 33.5105C88.2447 34.2055 88.4386 34.8496 88.6277 35.4936C88.7822 36.0046 88.9207 36.5275 89.089 37.0419C89.126 37.1594 89.0936 37.1937 88.9299 37.1937V37.1987Z" fill="#3B57A6"/>
<path d="M38.3356 36.6382C38.2829 35.9849 37.8844 35.3731 37.2261 34.9347C36.6978 34.6016 36.0358 34.4061 35.3421 34.3784C34.6484 34.3507 33.9618 34.4924 33.388 34.7815C33.1574 34.8922 32.9267 35.0181 32.6499 35.1611C32.7652 34.5513 32.8805 33.9841 32.9843 33.4168C33.1412 32.6111 33.2957 31.807 33.4456 31.0029C33.4872 30.807 33.4456 30.72 33.1296 30.7286C32.47 30.7456 31.8104 30.7388 31.1506 30.7286C30.9499 30.7286 30.8805 30.7831 30.8554 30.9229C30.6453 32.0336 30.4286 33.1375 30.2164 34.2568C29.8104 36.3568 29.4037 38.4577 28.9963 40.56C28.9661 40.7116 29.0101 40.7645 29.2267 40.7611C29.7067 40.7509 30.1885 40.7611 30.6685 40.7525C30.9453 40.7525 31.2705 40.8172 31.4828 40.727C31.6948 40.6366 31.6141 40.3486 31.7135 40.0915C32.0285 40.4261 32.4719 40.6836 32.9867 40.8307C33.4606 40.949 33.9656 40.9834 34.4608 40.9309C34.956 40.8786 35.4277 40.7409 35.8375 40.5291C36.7118 40.1232 37.4113 39.5416 37.8537 38.8524C38.2962 38.1632 38.4635 37.3952 38.3356 36.6382ZM34.5275 38.8531C34.3005 38.9868 34.0249 39.0679 33.7355 39.0865C33.4463 39.1049 33.1562 39.0597 32.9013 38.9568C32.6552 38.857 32.4519 38.7084 32.3143 38.5279C32.1765 38.3472 32.1097 38.1418 32.1216 37.9347C32.1146 37.5911 32.2461 37.2536 32.4995 36.9654C32.7529 36.6772 33.1168 36.4513 33.5447 36.3165C33.758 36.2497 33.9896 36.222 34.2205 36.2352C34.4511 36.2486 34.6743 36.3027 34.8709 36.3931C35.0674 36.4834 35.2316 36.6074 35.3496 36.7543C35.4678 36.9015 35.5363 37.0674 35.5493 37.2381C35.604 37.5507 35.537 37.8682 35.3566 38.154C35.176 38.4395 34.8892 38.6813 34.5297 38.8511L34.5275 38.8531Z" fill="#3B57A6"/>
<path d="M145.094 37.2144C145.285 36.8918 145.409 36.5496 145.463 36.1994C145.552 35.7916 145.763 35.4043 145.811 34.9896C145.827 34.8509 145.93 34.9457 145.992 34.9744C146.537 35.2496 147.157 35.4328 147.809 35.5107C148.509 35.6226 149.236 35.6005 149.921 35.4466C151.116 35.1082 151.343 34.5378 151.1 33.6682C150.981 33.3928 150.733 33.158 150.4 33.0068C149.836 32.6971 149.187 32.4889 148.603 32.2096C148.079 31.988 147.635 31.6757 147.31 31.2993C146.985 30.9228 146.789 30.4939 146.738 30.0491C146.635 29.3585 146.701 28.6598 146.933 27.9866C147.138 27.3934 147.552 26.8507 148.131 26.4132C148.691 26.0171 149.381 25.7364 150.134 25.5993C151.492 25.3753 152.902 25.3805 154.257 25.6144C154.605 25.6828 154.942 25.78 155.261 25.9039C155.284 25.9089 155.305 25.9171 155.324 25.9284C155.343 25.9398 155.358 25.9537 155.369 25.9694C155.38 25.9853 155.387 26.0028 155.389 26.0205C155.391 26.0384 155.387 26.056 155.38 26.073C155.137 26.7684 154.922 27.4655 154.729 28.171C154.686 28.3401 154.594 28.3401 154.422 28.2675C153.479 27.86 152.373 27.7087 151.295 27.8394C151.024 27.8444 150.759 27.9034 150.529 28.0103C150.299 28.1173 150.113 28.2684 149.99 28.4471C149.867 28.626 149.812 28.8259 149.83 29.026C149.848 29.2262 149.94 29.4189 150.095 29.5837C150.238 29.746 150.428 29.8826 150.651 29.9832C151.11 30.2014 151.568 30.3893 152.042 30.5889C153.015 30.9612 153.754 31.598 154.104 32.3653C154.424 33.1916 154.463 34.0635 154.216 34.9034C154.114 35.3276 153.922 35.7376 153.648 36.1182C153.345 36.5409 152.916 36.9076 152.395 37.191C151.772 37.5089 151.066 37.7262 150.321 37.8287C150.007 37.8864 149.687 37.925 149.364 37.9437C149.255 37.9623 149.143 37.968 149.032 37.9607H148.134C147.397 37.9343 146.672 37.82 145.985 37.6225C145.656 37.5741 145.343 37.4755 145.068 37.333L145.094 37.2144Z" fill="#F1A91F"/>
<path d="M148.45 37.9492H149.055C149.071 37.9576 149.074 37.9644 149.069 37.9746C149.064 37.9848 149.058 37.9848 149.051 37.9848H148.454C148.438 37.9848 148.434 37.9712 148.436 37.9644C148.438 37.9576 148.45 37.9492 148.45 37.9492Z" fill="#F8D28B"/>
<path d="M148.452 37.9495V37.9815H148.126C148.128 37.9692 148.128 37.9567 148.126 37.9443L148.452 37.9495Z" fill="#FAE3B4"/>
<path d="M149.052 37.9831V37.9492H149.377C149.374 37.9615 149.374 37.974 149.377 37.9864L149.052 37.9831Z" fill="#FAE1AE"/>
<path d="M215.383 37.9488C215.495 37.9332 215.611 37.9463 215.711 37.9859H215.383C215.387 37.9736 215.387 37.9609 215.383 37.9488Z" fill="#F9E0AE"/>
<path d="M216.961 37.9831C216.977 37.969 216.998 37.9578 217.022 37.9501C217.045 37.9424 217.07 37.9385 217.096 37.9385C217.121 37.9385 217.147 37.9424 217.17 37.9501C217.193 37.9578 217.214 37.969 217.231 37.9831H216.961Z" fill="#F8C76B"/>
<path d="M157.456 13.8903C157.226 14.2953 157.025 14.7086 156.853 15.1287C156.647 15.5382 156.468 15.9544 156.281 16.369C156.001 16.9882 155.742 17.6159 155.442 18.23C155.275 18.5684 155.126 18.9068 154.968 19.2452C154.65 19.922 154.352 20.599 154.052 21.2758C153.834 21.7529 153.612 22.2266 153.401 22.7038C153.39 22.7515 153.355 22.794 153.301 22.8224C153.248 22.8506 153.182 22.8622 153.117 22.8543C152.52 22.8452 151.923 22.8452 151.328 22.8543C151.156 22.8543 151.099 22.8222 151.099 22.6852C151.099 22.2316 151.069 21.7783 151.053 21.3315C150.998 19.7258 150.954 18.1166 150.886 16.5127C150.854 15.7598 150.872 15.0053 150.847 14.2524C150.862 14.1705 150.838 14.0871 150.778 14.0171C150.681 14.3192 150.605 14.6248 150.549 14.9325C150.467 15.5771 150.262 16.2031 150.127 16.8409C149.919 17.8375 149.701 18.8325 149.484 19.8308C149.275 20.8002 149.06 21.7697 148.856 22.7409C148.835 22.8408 148.778 22.8575 148.661 22.8575C147.765 22.8575 146.872 22.8575 145.976 22.8575C145.82 22.8575 145.807 22.8136 145.814 22.7156C145.846 22.3349 146.015 21.9711 146.061 21.5954C146.148 20.9 146.391 20.2199 146.482 19.5245C146.535 19.115 146.675 18.714 146.762 18.3079C147.003 17.2183 147.24 16.1292 147.472 15.0407C147.701 14.0256 147.914 13.0105 148.12 11.9953C148.18 11.7009 148.242 11.4047 148.306 11.1103C148.327 11.0173 148.366 10.9903 148.487 10.992C149.953 10.992 151.417 10.992 152.881 10.992C153.032 10.992 153.057 11.0343 153.057 11.1324C153.071 12.0731 153.08 13.0139 153.112 13.9529C153.158 15.3065 153.131 16.6752 153.154 18.0356C153.151 18.0822 153.164 18.1284 153.19 18.1708C153.332 18.0168 153.434 17.8449 153.49 17.6634C153.706 17.1795 153.932 16.6971 154.125 16.2064C154.365 15.5889 154.652 14.9833 154.904 14.3674C155.06 13.9884 155.238 13.611 155.401 13.2337C155.681 12.5773 156.01 11.9327 156.239 11.2644C156.299 11.0952 156.384 10.9834 156.697 10.9884C158.198 11.0071 159.699 11.0003 161.199 10.9884C161.428 10.9884 161.46 11.0375 161.428 11.1915C161.233 12.0375 161.046 12.8834 160.89 13.7294C160.803 14.2167 160.661 14.6973 160.551 15.1812C160.322 16.2048 160.113 17.2302 159.895 18.2538C159.678 19.2775 159.437 20.2977 159.252 21.3231C159.162 21.7916 159.023 22.2518 158.943 22.7188C158.922 22.8288 158.86 22.8609 158.713 22.8593C157.756 22.8593 156.796 22.8593 155.838 22.8593C155.701 22.8593 155.651 22.844 155.683 22.7274C155.887 21.9895 155.999 21.2436 156.141 20.5008C156.281 19.7936 156.473 19.0879 156.565 18.3722C156.617 17.9491 156.753 17.5262 156.84 17.1117C157.039 16.1134 157.22 15.1119 157.465 14.1204C157.47 14.0436 157.467 13.9667 157.456 13.8903Z" fill="#EA2228"/>
<path d="M181.05 36.1364C180.823 36.2717 180.635 36.4399 180.498 36.6305C180.098 37.0533 179.559 37.3935 178.931 37.6185C178.542 37.7642 178.113 37.8431 177.677 37.8492C177.24 37.8555 176.807 37.7887 176.411 37.654C175.835 37.4246 175.392 37.049 175.163 36.5965C174.819 36.0014 174.646 35.3605 174.654 34.7135C174.669 33.8946 174.765 33.0772 174.94 32.2685C175.08 31.4903 175.268 30.7171 175.362 29.9337C175.421 29.4497 175.552 28.9728 175.648 28.4922C175.648 28.4533 175.664 28.4126 175.669 28.3737C175.703 28.0522 175.703 28.0522 176.127 28.0522C177.004 28.0522 177.879 28.0522 178.757 28.0522C178.963 28.0522 179.004 28.1031 178.968 28.2367C178.711 29.2096 178.56 30.1976 178.372 31.1772C178.251 31.8049 178.072 32.4242 177.989 33.0519C177.898 33.4806 177.882 33.9164 177.943 34.348C177.97 34.5517 178.099 34.7408 178.304 34.8781C178.51 35.0156 178.777 35.0912 179.054 35.0906C179.311 35.0974 179.566 35.0606 179.8 34.983C180.034 34.9051 180.241 34.7885 180.404 34.6422C181.016 34.0551 181.386 33.3505 181.471 32.6121C181.662 31.7051 181.877 30.7983 182.035 29.8897C182.136 29.3144 182.312 28.7476 182.39 28.1722C182.404 28.0758 182.45 28.0522 182.573 28.0522C183.503 28.0522 184.436 28.0522 185.364 28.0522C185.57 28.0522 185.556 28.1249 185.533 28.2215C185.38 28.9378 185.231 29.6546 185.086 30.3719C184.857 31.531 184.605 32.6881 184.383 33.8471C184.154 35.0587 183.9 36.2701 183.753 37.4901C183.739 37.5983 183.684 37.6221 183.554 37.6221C182.713 37.6221 181.872 37.6221 181.034 37.6221C180.791 37.6221 180.826 37.529 180.844 37.419C180.909 37.0287 180.974 36.6385 181.039 36.2481C181.045 36.2112 181.049 36.1739 181.05 36.1364Z" fill="#F1A91F"/>
<path d="M213.688 20.0551C213.615 20.6167 213.493 21.1735 213.361 21.7283C213.299 21.9822 213.255 22.236 213.221 22.4981C213.225 22.5672 213.196 22.6351 213.138 22.6892C213.079 22.7433 212.997 22.7801 212.905 22.7927C211.397 23.1572 209.773 23.1706 208.254 22.8315C207.311 22.5756 206.491 22.1194 205.897 21.5202C205.532 21.1604 205.245 20.761 205.047 20.336C204.802 19.8458 204.648 19.3336 204.589 18.8131C204.547 18.2202 204.547 17.626 204.589 17.0331C204.637 16.6101 204.72 16.1897 204.839 15.7743C204.976 15.1595 205.23 14.5621 205.592 13.9995C206.14 13.0709 207.004 12.2627 208.099 11.6528C208.571 11.3917 209.092 11.1819 209.645 11.0301C210.901 10.6581 212.292 10.6135 213.588 10.9033C214.103 11.0319 214.641 11.1062 215.159 11.2331C215.473 11.3092 215.542 11.3599 215.482 11.5714C215.28 12.2888 215.207 13.0181 215.024 13.7372C214.969 13.9453 214.882 13.8895 214.737 13.8303C213.894 13.4683 212.934 13.2801 211.959 13.2855C211.206 13.3032 210.482 13.5022 209.897 13.8522C209.131 14.3192 208.572 14.9451 208.293 15.6491C207.843 16.6523 207.746 17.7237 208.011 18.7622C208.102 19.1483 208.314 19.5131 208.632 19.8265C208.874 20.0661 209.183 20.2635 209.54 20.4045C209.896 20.5454 210.29 20.6265 210.694 20.6422C211.507 20.6594 212.313 20.531 213.044 20.2681L213.688 20.0551Z" fill="#EA2228"/>
<path d="M212.217 28.7325C211.625 28.4686 210.981 28.2746 210.308 28.1573C209.884 28.077 209.441 28.0646 209.01 28.1212C208.579 28.1779 208.169 28.302 207.809 28.4855C207.065 28.8712 206.504 29.42 206.205 30.0539C205.735 30.9296 205.522 31.8693 205.582 32.8102C205.579 33.4668 205.836 34.1096 206.322 34.6596C206.608 34.9743 207.016 35.2175 207.493 35.357C207.97 35.4966 208.493 35.5261 208.993 35.4412C209.714 35.3398 210.406 35.1462 211.037 34.8695C210.902 35.5462 210.826 36.2095 210.645 36.8677C210.607 36.9707 210.589 37.0771 210.592 37.1839C210.636 37.507 210.397 37.6189 210.015 37.6712C209.238 37.8204 208.44 37.8987 207.637 37.9046C206.595 37.8862 205.588 37.6257 204.757 37.1604C204.067 36.745 203.527 36.2096 203.186 35.602C202.941 35.1904 202.765 34.7587 202.659 34.3161C202.5 33.612 202.448 32.897 202.503 32.1843C202.542 31.4391 202.686 30.6991 202.934 29.9762C203.07 29.6048 203.237 29.2396 203.433 28.883C203.662 28.4523 203.958 28.043 204.315 27.6632C204.798 27.1414 205.402 26.6871 206.1 26.3216C206.716 25.9946 207.418 25.7679 208.162 25.6566C209.109 25.5046 210.093 25.5362 211.018 25.748C211.506 25.8682 212.008 25.9459 212.485 26.0864C212.661 26.1387 212.714 26.1811 212.698 26.3402C212.558 27.1304 212.365 27.917 212.217 28.7325Z" fill="#F1A91F"/>
<path d="M171.317 20.5142C172.386 20.7994 173.522 20.9233 174.657 20.8781C174.883 20.8753 175.106 20.8456 175.319 20.7903C175.968 20.5972 176.185 20.3385 176.006 19.6988C175.956 19.5762 175.842 19.4729 175.69 19.4112C175.318 19.2162 174.921 19.0488 174.504 18.9119C173.556 18.6194 172.791 18.0765 172.357 17.3893C172.022 16.7579 171.957 16.0661 172.169 15.4064C172.243 15.0657 172.398 14.7375 172.628 14.4369C172.966 14.004 173.465 13.6516 174.066 13.4215C175.316 12.9987 176.705 12.8525 178.066 13.0004C178.579 13.0342 179.085 13.0968 179.596 13.134C179.777 13.1476 179.825 13.1982 179.791 13.3251C179.626 13.9443 179.562 14.5772 179.395 15.1965C179.349 15.3657 179.253 15.3961 179.056 15.3657C178.381 15.2795 177.697 15.2343 177.012 15.2304C176.66 15.2274 176.31 15.2757 175.984 15.3725C175.811 15.424 175.664 15.5131 175.561 15.628C175.459 15.7428 175.407 15.878 175.411 16.0154C175.396 16.1442 175.431 16.2735 175.512 16.388C175.593 16.5026 175.717 16.5975 175.869 16.6617C176.444 16.9426 177.097 17.1101 177.674 17.391C178.082 17.5834 178.428 17.8386 178.689 18.139C178.951 18.4396 179.121 18.7783 179.188 19.1319C179.346 19.8321 179.261 20.5504 178.941 21.2197C178.721 21.6762 178.311 22.0694 177.771 22.3433C176.841 22.7806 175.756 23.0033 174.655 22.9828C173.445 23.0113 172.235 22.9331 171.051 22.7494C170.934 22.7324 170.822 22.7326 170.843 22.5972C170.987 21.9204 171.116 21.2197 171.317 20.5142Z" fill="#EA2228"/>
<path d="M173.774 30.8184C173.257 30.5502 172.662 30.3765 172.036 30.3109C171.637 30.2699 171.231 30.3058 170.857 30.4149C170.483 30.524 170.154 30.7026 169.901 30.9334C169.259 31.5417 168.911 32.2909 168.913 33.062C168.854 33.5342 168.946 34.0099 169.181 34.4509C169.356 34.8033 169.692 35.0999 170.13 35.2893C170.569 35.479 171.083 35.5497 171.584 35.4899C172.121 35.4258 172.639 35.2926 173.112 35.0958C173.163 35.1956 173.092 35.2902 173.078 35.3817C172.966 36.0365 172.849 36.6913 172.723 37.3427C172.673 37.5965 172.437 37.6472 172.221 37.6811C171.433 37.8536 170.612 37.9284 169.791 37.9027C169.213 37.8777 168.65 37.7554 168.146 37.5447C167.642 37.3342 167.21 37.0409 166.884 36.6879C166.464 36.257 166.154 35.7738 165.967 35.2615C165.588 34.2209 165.544 33.1293 165.839 32.074C165.964 31.6051 166.15 31.1461 166.393 30.7034C166.693 30.1417 167.131 29.6254 167.683 29.1806C168.198 28.742 168.844 28.3976 169.569 28.174C170.294 27.9502 171.08 27.8534 171.864 27.8913C172.485 27.9249 173.092 28.0443 173.653 28.2433C173.884 28.2992 174.106 28.3754 174.313 28.4701C174.375 28.5074 174.437 28.5309 174.414 28.6122C174.192 29.3415 173.988 30.0688 173.774 30.8184Z" fill="#F1A91F"/>
<path d="M185.16 11.7456C185.078 12.2314 184.959 12.7133 184.802 13.1889H186.454C186.397 13.9503 186.156 14.6778 186.053 15.4189C186.037 15.5255 185.975 15.5323 185.863 15.5306C185.467 15.5306 185.066 15.5459 184.669 15.5306C184.422 15.5171 184.349 15.5865 184.314 15.7506C184.19 16.3546 184.074 16.9603 183.922 17.5592C183.744 18.258 183.648 18.9654 183.464 19.6625C183.4 19.8061 183.387 19.9595 183.427 20.1077C183.468 20.2561 183.559 20.3941 183.693 20.5084C183.876 20.6254 184.112 20.6859 184.353 20.6775C184.623 20.707 184.897 20.6973 185.162 20.6489C185.35 20.6116 185.446 20.6487 185.409 20.818C185.302 21.2766 185.208 21.7366 185.112 22.1968C185.089 22.2821 185.078 22.3689 185.079 22.4559C185.09 22.4995 185.088 22.5441 185.074 22.587C185.06 22.63 185.034 22.6704 184.998 22.7055C184.962 22.7409 184.916 22.7702 184.864 22.792C184.812 22.8136 184.754 22.827 184.694 22.8314C184.021 22.9646 183.329 23.0441 182.633 23.0682C181.972 23.08 181.328 22.9071 180.832 22.5843C180.455 22.3036 180.214 21.9393 180.145 21.5473C180.039 20.9845 180.062 20.4125 180.214 19.8554C180.408 18.9907 180.564 18.1191 180.745 17.2546C180.83 16.8468 180.951 16.4442 181.032 16.0364C181.245 14.9519 181.489 13.8741 181.732 12.793C181.801 12.485 181.849 12.1754 181.927 11.8691C181.948 11.7947 181.955 11.7456 182.081 11.7456C183.102 11.7473 184.131 11.7456 185.16 11.7456Z" fill="#EA2228"/>
<path d="M201.865 13.1872C201.817 13.6611 201.73 14.1323 201.604 14.5983C201.819 14.4507 202.002 14.2796 202.147 14.0908C202.457 13.7566 202.855 13.4722 203.318 13.255C203.709 13.1124 204.151 13.0651 204.58 13.1197C204.761 13.1332 204.679 13.2092 204.64 13.2752C204.363 13.7149 204.123 14.1671 203.923 14.6289C203.767 15.0163 203.648 15.4122 203.528 15.8132C203.499 15.9164 203.46 15.9451 203.325 15.9367C203.136 15.9207 202.945 15.9354 202.765 15.9798C202.585 16.0243 202.42 16.0973 202.282 16.1938C202.084 16.3442 201.928 16.5227 201.824 16.7184C201.468 17.4122 201.217 18.1328 201.075 18.8673C200.846 19.7944 200.617 20.7285 200.466 21.6591C200.406 22.0278 200.289 22.3917 200.211 22.7605C200.193 22.8467 200.152 22.8671 200.042 22.8671C199.057 22.8671 198.072 22.8671 197.089 22.8671C196.901 22.8671 196.938 22.7908 196.956 22.7146C197.151 21.9432 197.291 21.1666 197.446 20.3917C197.593 19.676 197.788 18.9637 197.884 18.2412C197.941 17.8132 198.074 17.3952 198.163 16.9638C198.385 15.9204 198.602 14.8763 198.816 13.8318C198.853 13.6626 198.883 13.4767 198.903 13.2973C198.903 13.2313 198.938 13.2042 199.032 13.2042L201.865 13.1872Z" fill="#EA2228"/>
<path d="M229.72 14.5934L230.464 13.8758C230.679 13.626 230.98 13.4228 231.336 13.287C231.692 13.1512 232.091 13.0877 232.492 13.1028C232.815 13.118 232.858 13.1466 232.689 13.3548C232.52 13.5802 232.38 13.817 232.272 14.0619C231.984 14.5902 231.775 15.1401 231.648 15.7016C231.618 15.859 231.548 15.9283 231.295 15.9249C231.026 15.9261 230.762 15.9841 230.535 16.092C230.309 16.1999 230.128 16.3531 230.015 16.534C229.594 17.2454 229.309 17.9964 229.167 18.7657C228.938 19.6691 228.76 20.5863 228.563 21.4982C228.446 21.8945 228.37 22.2966 228.334 22.7013C228.334 22.8045 228.274 22.8502 228.118 22.8486C227.15 22.8486 226.182 22.8486 225.216 22.8486C225.044 22.8486 225.035 22.8045 225.055 22.6945C225.252 21.7216 225.472 20.7538 225.66 19.7791C225.804 19.0229 225.983 18.2716 226.118 17.5119C226.292 16.5441 226.547 15.5847 226.728 14.6169C226.808 14.1956 226.909 13.7709 226.989 13.3564C227.012 13.2295 227.076 13.1872 227.264 13.1872C228.095 13.194 228.926 13.194 229.758 13.1872C229.953 13.1872 229.988 13.2312 229.951 13.3564C229.864 13.6948 229.79 14.0519 229.722 14.3988C229.715 14.4636 229.715 14.5285 229.72 14.5934Z" fill="#EA2228"/>
<path d="M189.658 29.3574C190.025 29.0393 190.311 28.6892 190.698 28.3947C190.894 28.234 191.138 28.1083 191.41 28.027C191.681 27.946 191.975 27.9115 192.267 27.9261C192.444 27.9261 192.567 27.9463 192.451 28.119C192.218 28.4779 192.026 28.8502 191.875 29.2322C191.674 29.6806 191.521 30.1399 191.417 30.6061C191.388 30.7551 191.319 30.7752 191.149 30.7668C190.988 30.7518 190.824 30.764 190.67 30.8027C190.516 30.8415 190.376 30.9054 190.26 30.9901C190.033 31.1688 189.86 31.3818 189.754 31.6143C189.456 32.2686 189.239 32.9413 189.106 33.6245C188.847 34.7733 188.627 35.9256 188.393 37.0777C188.361 37.247 188.341 37.4161 188.325 37.5735C188.325 37.6649 188.267 37.6988 188.139 37.6972C187.235 37.6972 186.332 37.6972 185.429 37.6972C185.291 37.6972 185.252 37.6599 185.275 37.5652C185.443 36.8885 185.539 36.2115 185.667 35.5347C185.807 34.797 185.988 34.0643 186.089 33.3233C186.157 32.8411 186.288 32.3624 186.382 31.8818C186.626 30.6411 186.866 29.4036 187.101 28.1695C187.12 28.0765 187.15 28.0443 187.278 28.0461C188.082 28.0461 188.881 28.0461 189.69 28.0461C189.827 28.0461 189.855 28.0715 189.837 28.1695C189.779 28.5638 189.72 28.9597 189.658 29.3574Z" fill="#F2AA1D"/>
<path d="M248.805 36.003C248.618 36.4358 248.478 36.8787 248.389 37.3278C248.34 37.4699 248.261 37.4969 248.082 37.4969C247.9 37.4969 247.864 37.4292 247.828 37.3278C247.683 36.903 247.601 36.4699 247.487 36.0317C247.361 36.096 247.41 36.1773 247.407 36.2432C247.407 36.6103 247.395 36.9774 247.407 37.3446C247.407 37.4969 247.306 37.4951 247.16 37.4985C247.013 37.5019 246.931 37.4716 246.931 37.343C246.94 36.8039 246.94 36.2641 246.931 35.7237C246.931 35.6087 246.962 35.5546 247.136 35.5546C247.651 35.5546 247.651 35.5462 247.758 35.9133C247.85 36.2332 247.932 36.5512 248.021 36.8692C248.038 36.9267 248.065 36.9826 248.089 37.0383C248.183 36.9491 248.229 36.8378 248.217 36.7255C248.268 36.3871 248.42 36.0487 248.502 35.7103C248.536 35.5699 248.614 35.541 248.785 35.541C249.22 35.541 249.22 35.541 249.22 35.8507C249.22 36.3378 249.22 36.8235 249.22 37.3108C249.22 37.4444 249.17 37.4799 248.993 37.4799C248.817 37.4799 248.783 37.4376 248.783 37.3192C248.812 36.8946 248.805 36.448 248.805 36.003Z" fill="#F2A91F"/>
<path d="M245.487 36.6976C245.487 36.486 245.487 36.2712 245.487 36.0598C245.487 35.9362 245.439 35.8905 245.272 35.9041C245.2 35.9078 245.127 35.9078 245.057 35.9041C244.781 35.9041 244.706 35.8264 244.769 35.6249C244.793 35.5591 244.844 35.5641 244.907 35.5641C245.451 35.5641 245.99 35.5641 246.532 35.5641C246.674 35.5641 246.687 35.613 246.667 35.6841C246.648 35.7551 246.766 35.8871 246.554 35.9041C246.428 35.9142 246.3 35.9142 246.174 35.9041C245.976 35.8871 245.93 35.9532 245.935 36.0869C245.935 36.5082 245.935 36.9328 245.935 37.3473C245.935 37.4658 245.903 37.5166 245.732 37.5032C245.56 37.4896 245.458 37.5032 245.47 37.3339C245.504 37.1258 245.487 36.9124 245.487 36.6976Z" fill="#F2A91F"/>
<path d="M221.956 30.7248C221.79 30.1776 221.478 29.6599 221.04 29.2019C220.584 28.7046 219.933 28.3214 219.175 28.1039C218.213 27.8371 217.161 27.8016 216.17 28.0024C215.533 28.1217 214.932 28.3283 214.399 28.6116C213.944 28.8683 213.545 29.1753 213.217 29.5217C212.833 29.9082 212.524 30.3324 212.3 30.7823C211.998 31.4023 211.807 32.0491 211.734 32.7058C211.479 34.0207 211.793 35.3612 212.63 36.5366C212.917 36.8967 213.309 37.2057 213.775 37.4419C214.265 37.6785 214.808 37.8474 215.379 37.9408C215.48 37.9866 215.608 37.9258 215.707 37.9782H216.955C216.997 37.9619 217.043 37.9532 217.09 37.9532C217.138 37.9532 217.184 37.9619 217.226 37.9782H217.336C217.356 37.9274 217.418 37.9392 217.468 37.9307C218.428 37.801 219.32 37.4766 220.043 36.9935C220.46 36.6976 220.811 36.3551 221.083 35.9783C221.325 35.6546 221.524 35.3146 221.679 34.963C221.933 34.3308 222.087 33.6791 222.137 33.0207C222.237 32.253 222.176 31.4787 221.956 30.7248ZM218.634 34.1832C218.474 34.6776 218.1 35.1201 217.569 35.4435C217.273 35.6067 216.905 35.6835 216.536 35.6592C216.168 35.6349 215.824 35.511 215.572 35.3116C215.233 35.0153 215.023 34.6512 214.967 34.2658C214.787 33.3791 214.912 32.4732 215.331 31.6316C215.539 31.118 215.983 30.6742 216.587 30.3762C216.887 30.2474 217.241 30.2028 217.583 30.2503C217.925 30.298 218.232 30.4342 218.449 30.6349C218.877 31.1866 219.061 31.823 218.978 32.4557C218.979 33.0407 218.862 33.6226 218.634 34.1832Z" fill="#F1A91F"/>
<path d="M243.928 10.9754C243.106 10.9839 242.284 10.9754 241.461 10.9754C241.289 10.9754 241.086 10.9366 240.955 10.9907C240.824 11.0448 240.884 11.2309 240.854 11.3544C240.685 12.0887 240.499 12.8197 240.378 13.5541C240.339 13.8045 240.252 14.0496 240.181 14.3186C239.789 13.956 239.326 13.639 238.806 13.3781C238.24 13.1296 237.585 13.0117 236.928 13.0396C236.334 13.0595 235.754 13.1842 235.239 13.4033C234.722 13.6246 234.258 13.9069 233.865 14.2391C233.547 14.5145 233.267 14.8126 233.029 15.1291C232.668 15.5874 232.384 16.0759 232.181 16.5842C231.833 17.4325 231.678 18.3177 231.723 19.2036C231.716 20.1439 232.087 21.0646 232.788 21.8496C233.165 22.2818 233.722 22.6109 234.376 22.787C234.968 22.9595 235.611 23.0146 236.24 22.9466C236.87 22.8786 237.465 22.69 237.965 22.3995C238.213 22.2573 238.423 22.0832 238.724 21.9021C238.664 22.1932 238.628 22.4316 238.566 22.665C238.531 22.797 238.566 22.8345 238.756 22.8345C239.64 22.8345 240.527 22.8259 241.413 22.8345C241.619 22.8345 241.667 22.7786 241.693 22.6448C241.841 21.875 241.994 21.1068 242.151 20.3386C242.39 19.2254 242.642 18.1104 242.854 16.9937C243.053 15.9684 243.261 14.943 243.498 13.9211C243.715 12.9922 243.846 12.06 244.116 11.1311C244.158 11.0263 244.124 10.9737 243.928 10.9754ZM239.23 18.6196C239.096 19.0927 238.83 19.54 238.449 19.9325C238.224 20.1732 237.909 20.3604 237.543 20.4713C237.177 20.5821 236.776 20.6118 236.387 20.557C236.091 20.4814 235.828 20.348 235.627 20.1711C235.425 19.9941 235.292 19.7802 235.242 19.552C235.15 19.2464 235.108 18.9343 235.116 18.6214C235.105 18.0346 235.234 17.4509 235.498 16.8973C235.69 16.4413 236.046 16.0323 236.527 15.713C236.835 15.5201 237.224 15.4124 237.628 15.4083C238.032 15.4043 238.425 15.5042 238.74 15.6909C239.045 15.9191 239.249 16.2107 239.324 16.5268C239.488 17.2217 239.456 17.9341 239.23 18.6196Z" fill="#EA2228"/>
<path d="M234.601 25.7109C233.708 25.7109 232.812 25.7109 231.919 25.7109C231.845 25.7109 231.779 25.7111 231.763 25.7838C231.657 26.3236 231.534 26.8633 231.444 27.4047C231.355 27.9461 231.202 28.4842 231.089 29.0747C230.831 28.8445 230.631 28.6381 230.402 28.4638C230.037 28.1761 229.572 27.9677 229.057 27.8615C228.523 27.7583 227.963 27.7536 227.426 27.8477C226.889 27.9418 226.391 28.132 225.976 28.4013C225.204 28.8929 224.592 29.5063 224.184 30.1963C223.778 30.8629 223.499 31.5679 223.353 32.2911C222.96 33.6761 223.197 35.1184 224.027 36.3942C224.344 36.8447 224.838 37.214 225.445 37.4533C226.015 37.6768 226.667 37.7618 227.307 37.6968C227.98 37.6352 228.611 37.4234 229.117 37.0895C229.305 36.9677 229.431 36.7833 229.713 36.7156C229.701 36.9542 229.665 37.1917 229.605 37.4261C229.587 37.5327 229.605 37.58 229.783 37.58C230.614 37.5745 231.446 37.5745 232.278 37.58C232.418 37.58 232.459 37.5429 232.478 37.4449C232.681 36.3699 232.889 35.2983 233.103 34.23C233.338 33.0377 233.574 31.8472 233.811 30.6583C233.902 30.1981 234.04 29.7395 234.097 29.2759C234.196 28.5265 234.425 27.7904 234.516 27.0408C234.562 26.6517 234.679 26.2659 234.759 25.8784C234.764 25.7904 234.78 25.7109 234.601 25.7109ZM230.15 33.4942C230.066 33.7999 229.924 34.0949 229.726 34.3704C229.563 34.6952 229.245 34.9652 228.833 35.1308C228.421 35.2961 227.941 35.3458 227.483 35.2706C227.326 35.2418 227.179 35.1881 227.052 35.1134C226.926 35.0386 226.823 34.9445 226.75 34.8374C226.42 34.3852 226.282 33.8699 226.354 33.3586C226.323 32.7081 226.469 32.0597 226.785 31.4518C226.958 31.0302 227.306 30.6595 227.781 30.3927C227.967 30.2838 228.184 30.2088 228.417 30.1745C228.649 30.14 228.89 30.147 229.117 30.1949C229.345 30.2427 229.554 30.3299 229.728 30.4493C229.901 30.5688 230.033 30.717 230.113 30.8817C230.471 31.7293 230.485 32.6358 230.152 33.489L230.15 33.4942Z" fill="#F1AA1E"/>
<path d="M170.672 14.5375C170.484 14.2001 170.192 13.8995 169.82 13.6601C169.447 13.4207 169.004 13.2489 168.525 13.1584C167.554 12.9503 166.533 12.9024 165.534 13.018C164.636 13.1136 163.751 13.262 162.885 13.4614C162.759 13.4885 162.741 13.5308 162.722 13.6104C162.59 14.233 162.514 14.8624 162.326 15.4715C162.267 15.6644 162.393 15.6407 162.539 15.6034C163.256 15.4072 164.006 15.2854 164.768 15.2414C165.606 15.1326 166.468 15.1772 167.277 15.3715C167.441 15.4163 167.584 15.4946 167.689 15.5975C167.795 15.7003 167.858 15.8233 167.872 15.9519C167.906 16.1643 167.881 16.3796 167.799 16.5847C167.76 16.693 167.691 16.72 167.552 16.7031C166.924 16.6414 166.288 16.6294 165.657 16.6675C164.746 16.6942 163.854 16.8675 163.043 17.1752C162.144 17.5087 161.438 18.0713 161.057 18.759C160.783 19.2583 160.64 19.7917 160.635 20.3306C160.606 20.9588 160.841 21.5781 161.307 22.1038C161.571 22.4003 161.937 22.6394 162.368 22.7963C162.799 22.9533 163.279 23.0228 163.758 22.9974C164.699 23.0165 165.62 22.7915 166.36 22.3612C166.618 22.2003 166.855 22.0212 167.066 21.8265C167.073 22.1006 167.055 22.3747 167.011 22.6471C166.979 22.7824 167.027 22.8331 167.24 22.8297C167.971 22.8213 168.704 22.8163 169.435 22.8297C169.687 22.8297 169.758 22.7688 169.776 22.6031C169.817 22.2122 169.902 21.8229 169.971 21.4338C170.163 20.3256 170.404 19.2224 170.617 18.1176C170.777 17.5185 170.887 16.9128 170.949 16.3038C171.028 15.7072 170.934 15.105 170.672 14.5375ZM167.329 18.8231C167.302 19.2354 167.157 19.6388 166.906 20.0074C166.746 20.2951 166.472 20.5404 166.12 20.711C165.768 20.8815 165.354 20.9696 164.933 20.9635C164.662 20.9663 164.4 20.8926 164.2 20.7574C164 20.6222 163.877 20.4356 163.856 20.236C163.766 19.9158 163.825 19.5824 164.024 19.2901C164.155 19.121 164.335 18.9747 164.55 18.8612C164.765 18.7476 165.011 18.6694 165.27 18.6319C165.686 18.5483 166.117 18.5101 166.548 18.5185C166.69 18.5185 166.835 18.5185 166.981 18.5185C167.35 18.5304 167.357 18.539 167.329 18.8231Z" fill="#EA2228"/>
<path d="M224.712 15.1029C224.642 14.7554 224.47 14.4235 224.208 14.1301C223.729 13.6182 223.006 13.2592 222.183 13.1251C221.157 12.9352 220.089 12.9097 219.049 13.0505C218.261 13.1477 217.482 13.2846 216.719 13.4601C216.607 13.4855 216.593 13.5192 216.57 13.5902C216.373 14.2179 216.341 14.8695 216.151 15.4972C216.103 15.6427 216.201 15.6546 216.357 15.6106C217.077 15.4218 217.826 15.3012 218.586 15.2518C219.327 15.1671 220.083 15.186 220.815 15.3076C220.964 15.3216 221.106 15.3589 221.234 15.4169C221.362 15.4748 221.471 15.5521 221.555 15.6436C221.639 15.7352 221.695 15.8389 221.721 15.9479C221.746 16.0568 221.74 16.1684 221.702 16.2754C221.686 16.3736 221.642 16.4701 221.633 16.57C221.622 16.7138 221.514 16.7239 221.358 16.712C220.57 16.6347 219.771 16.6347 218.983 16.712C218.015 16.7906 217.09 17.0464 216.291 17.4564C215.387 17.9424 214.779 18.6721 214.598 19.4869C214.429 19.9564 214.403 20.4474 214.522 20.9253C214.64 21.403 214.901 21.8553 215.285 22.2498C215.564 22.5253 215.943 22.7369 216.378 22.8605C217.054 23.036 217.785 23.0649 218.483 22.9435C219.097 22.8708 219.675 22.6821 220.16 22.3953C220.43 22.2187 220.686 22.0298 220.925 21.8301C220.902 22.1515 220.889 22.4173 220.861 22.676C220.85 22.7894 220.872 22.8455 221.056 22.8455C221.832 22.8369 222.609 22.8455 223.388 22.8455C223.518 22.8455 223.567 22.8217 223.583 22.7167C223.727 21.8589 223.867 21.001 224.041 20.1465C224.27 19.0349 224.517 17.9285 224.698 16.8135C224.809 16.2464 224.814 15.6709 224.712 15.1029ZM221.15 18.8101C221.107 19.2464 220.951 19.6724 220.692 20.0655C220.498 20.3937 220.149 20.6582 219.709 20.8087C219.27 20.9594 218.771 20.9857 218.307 20.8826C218.076 20.8001 217.885 20.6665 217.762 20.5003C217.639 20.3342 217.589 20.1437 217.619 19.9555C217.616 19.6342 217.769 19.3226 218.05 19.0773C218.332 18.8321 218.722 18.6694 219.152 18.6189C219.699 18.5342 220.257 18.499 220.815 18.5139C221.205 18.5257 221.196 18.536 221.15 18.8101Z" fill="#EA2228"/>
<path d="M196.504 15.6424C196.417 15.1338 196.164 14.6483 195.767 14.2278C195.275 13.7075 194.566 13.3206 193.749 13.1263C192.586 12.8297 191.313 12.8815 190.202 13.2703C189.232 13.6061 188.418 14.1465 187.863 14.8234C187.31 15.4611 186.921 16.169 186.718 16.9113C186.494 17.6184 186.404 18.3449 186.45 19.0703C186.48 19.9158 186.8 20.7417 187.38 21.4711C187.948 22.1331 188.829 22.6156 189.852 22.8247C191.062 23.0826 192.339 23.126 193.577 22.9515C194.138 22.901 194.692 22.8086 195.228 22.6758C195.332 22.6454 195.414 22.6251 195.428 22.5201C195.454 22.2885 195.497 22.0581 195.556 21.8299C195.694 21.3104 195.817 20.7876 195.891 20.2715C195.347 20.4395 194.79 20.5836 194.223 20.7029C193.35 20.8758 192.438 20.9076 191.547 20.7961C191.006 20.7451 190.505 20.5595 190.127 20.2699C189.763 19.9269 189.592 19.4936 189.65 19.0601C189.65 18.8758 189.755 18.8486 189.975 18.8486C191.964 18.8486 193.955 18.8486 195.932 18.8486C196.108 18.8486 196.184 18.8147 196.223 18.6794C196.559 17.6872 196.654 16.6591 196.504 15.6424ZM193.568 16.6184C193.554 16.9568 193.609 16.9044 193.171 16.9078C192.734 16.9112 192.232 16.9078 191.762 16.9078C191.219 16.9078 190.679 16.9078 190.136 16.9078C189.957 16.9078 189.92 16.874 189.959 16.7387C190.075 16.2746 190.368 15.8448 190.805 15.5003C191.05 15.304 191.376 15.1738 191.733 15.1303C192.09 15.0869 192.456 15.1326 192.773 15.2603C193.09 15.3879 193.341 15.5902 193.485 15.8351C193.629 16.0799 193.658 16.3534 193.568 16.6118V16.6184Z" fill="#EA2228"/>
<path d="M164.67 30.1674C164.512 29.6755 164.206 29.2165 163.774 28.824C163.286 28.406 162.639 28.1064 161.917 27.9644C160.938 27.7489 159.886 27.8092 158.964 28.1339C157.933 28.5097 157.093 29.1199 156.567 29.8747C156.07 30.539 155.733 31.2622 155.571 32.0117C155.398 32.7753 155.355 33.5515 155.443 34.323C155.489 35.2578 155.957 36.1546 156.771 36.871C157.221 37.2437 157.795 37.5226 158.437 37.6797C159.451 37.9292 160.53 38.0022 161.589 37.893C162.213 37.8283 162.831 37.7321 163.438 37.6053C163.531 37.5942 163.616 37.5594 163.679 37.5069C163.741 37.4544 163.777 37.3876 163.779 37.3178C163.813 37.0199 163.88 36.7239 163.946 36.4294C164.04 36.0097 164.143 35.5937 164.251 35.1487C163.73 35.324 163.194 35.4747 162.647 35.6003C161.785 35.7801 160.876 35.7997 160.001 35.6578C159.559 35.5903 159.157 35.4196 158.856 35.1705C158.506 34.8206 158.337 34.3896 158.382 33.9556C158.382 33.773 158.46 33.7256 158.707 33.7256C160.54 33.734 162.373 33.7256 164.205 33.734C164.469 33.734 164.583 33.6917 164.581 33.4871C164.589 33.3406 164.615 33.1951 164.659 33.0522C164.947 32.1028 164.951 31.1181 164.67 30.1674ZM162.013 31.7442C161.994 31.8474 161.873 31.8087 161.795 31.8087C161.307 31.8087 160.819 31.8087 160.331 31.8087C159.834 31.8087 159.339 31.8087 158.842 31.8087C158.641 31.8087 158.613 31.7528 158.657 31.6276C158.777 31.171 159.06 30.7462 159.477 30.3974C159.628 30.2671 159.82 30.1656 160.036 30.1015C160.252 30.0372 160.486 30.0124 160.717 30.029C160.949 30.0456 161.172 30.1031 161.367 30.1967C161.562 30.2903 161.724 30.4172 161.839 30.5667C162.068 30.9355 162.132 31.3487 162.022 31.7462L162.013 31.7442Z" fill="#F1A91F"/>
<path d="M201.015 29.9237C200.83 29.4265 200.464 28.9765 199.955 28.6237C199.446 28.2708 198.816 28.0287 198.133 27.9237C197.495 27.8101 196.829 27.8106 196.192 27.9251C195.555 28.0396 194.963 28.2647 194.467 28.5819C193.728 29.0287 193.146 29.6003 192.77 30.2485C192.502 30.6755 192.293 31.121 192.144 31.5785C191.832 32.484 191.734 33.423 191.856 34.3533C191.928 34.8753 192.095 35.3874 192.355 35.8758C192.613 36.3796 193.044 36.8251 193.606 37.1687C194.328 37.5694 195.182 37.8199 196.08 37.8944C197.258 37.9885 198.45 37.9146 199.59 37.6762C199.949 37.6119 200.277 37.5288 200.211 37.1803C200.211 37.1606 200.217 37.1413 200.226 37.123C200.419 36.4851 200.488 35.8353 200.644 35.1687C200.114 35.3074 199.661 35.4937 199.152 35.5883C198.25 35.7892 197.293 35.8113 196.375 35.6526C195.869 35.5749 195.423 35.3531 195.136 35.0351C194.878 34.7117 194.755 34.3388 194.783 33.9638C194.783 33.7947 194.854 33.7306 195.109 33.7306C196.941 33.739 198.774 33.7306 200.607 33.7306C200.818 33.7306 200.909 33.7017 200.969 33.5292C201.128 33.0165 201.225 32.4946 201.26 31.9692C201.364 31.2821 201.28 30.5865 201.015 29.9237ZM198.481 31.6444C198.481 31.7746 198.423 31.8135 198.252 31.8135C197.764 31.8049 197.278 31.8135 196.79 31.8135H195.299C195.182 31.8135 195.07 31.8135 195.102 31.6899C195.137 31.386 195.266 31.0919 195.48 30.8305C195.693 30.5692 195.984 30.3474 196.332 30.1824C196.541 30.0919 196.778 30.0424 197.02 30.0383C197.262 30.0342 197.502 30.0758 197.716 30.159C197.931 30.2424 198.113 30.3646 198.245 30.5144C198.378 30.664 198.457 30.8365 198.474 31.0149C198.502 31.2242 198.502 31.4347 198.481 31.6444Z" fill="#F1A91F"/>
<path d="M244.02 31.132C244.005 30.4517 243.756 29.7854 243.299 29.1947C243.016 28.842 242.629 28.5413 242.168 28.3151C241.705 28.0888 241.18 27.9429 240.63 27.8886C240.057 27.8163 239.469 27.8335 238.905 27.939C238.342 28.0445 237.814 28.236 237.356 28.501C236.768 28.8294 236.271 29.2378 235.89 29.704C235.441 30.2344 235.114 30.8156 234.921 31.4247C234.577 32.3801 234.469 33.3733 234.6 34.357C234.67 35.0486 234.941 35.7211 235.395 36.3281C235.952 37.0261 236.857 37.5356 237.915 37.7478C239.481 38.0369 241.127 37.9861 242.656 37.602C242.729 37.5906 242.796 37.5613 242.845 37.5188C242.895 37.4763 242.924 37.4229 242.927 37.367C243.019 36.9406 243.135 36.521 243.198 36.0861C243.241 35.7901 243.323 35.4972 243.396 35.169C243.2 35.2233 243.053 35.2553 242.922 35.3044C241.887 35.6835 240.727 35.8329 239.581 35.7342C239.173 35.709 238.781 35.6115 238.435 35.4499C238.113 35.2822 237.857 35.0542 237.694 34.7892C237.53 34.5244 237.465 34.232 237.505 33.9424C237.505 33.7733 237.588 33.7361 237.805 33.7378C239.668 33.7378 241.53 33.7378 243.393 33.7378C243.565 33.7378 243.664 33.7292 243.698 33.5685C243.925 32.7674 244.034 31.9504 244.02 31.132ZM240.976 31.8088C240.479 31.8004 239.982 31.8088 239.485 31.8088C238.994 31.8088 238.509 31.8088 238.018 31.8088C237.924 31.8088 237.764 31.8392 237.814 31.6988C237.861 31.392 237.999 31.0967 238.217 30.8336C238.436 30.5704 238.73 30.3461 239.079 30.1761C239.29 30.0894 239.526 30.0433 239.768 30.0426C240.009 30.0419 240.246 30.0863 240.457 30.1719C240.669 30.2574 240.847 30.3813 240.976 30.5319C241.105 30.6824 241.18 30.8545 241.194 31.0322C241.214 31.237 241.194 31.4451 241.194 31.6515C241.212 31.7751 241.155 31.8156 240.976 31.8122V31.8088Z" fill="#F1A91F"/>
<path d="M245.5 19.9331C244.989 19.9719 244.515 20.1497 244.175 20.4324C243.831 20.7149 243.645 21.0815 243.647 21.4606C243.652 21.8397 243.848 22.204 244.196 22.4822C244.547 22.7604 245.023 22.9327 245.533 22.9651C246.044 22.9263 246.517 22.7481 246.861 22.4656C247.202 22.1831 247.39 21.8167 247.385 21.4376C247.381 21.0585 247.185 20.694 246.837 20.4158C246.488 20.1376 246.012 19.9654 245.5 19.9331ZM245.5 22.6402C245.096 22.6188 244.716 22.4845 244.438 22.2647C244.162 22.0449 244.01 21.7558 244.01 21.4558C244.013 21.1627 244.175 20.8827 244.457 20.677C244.74 20.4715 245.122 20.3572 245.519 20.3594C245.915 20.3617 246.295 20.4802 246.573 20.689C246.851 20.8977 247.006 21.1795 247.003 21.4726C247.003 21.7711 246.846 22.0581 246.568 22.2744C246.29 22.4908 245.911 22.6199 245.507 22.6351L245.5 22.6402Z" fill="#EA2228"/>
<path d="M246.022 21.6869C245.93 21.5869 245.942 21.5326 246.082 21.453C246.13 21.4133 246.169 21.3667 246.193 21.316C246.217 21.2653 246.23 21.2117 246.225 21.1578C246.22 21.104 246.203 21.0512 246.172 21.0028C246.14 20.9542 246.094 20.911 246.041 20.8755C245.693 20.7546 245.299 20.7344 244.934 20.8194C244.767 20.8464 244.9 21.1328 244.871 21.2989C244.866 21.3451 244.866 21.3915 244.871 21.4378C244.871 21.619 244.871 21.7987 244.871 21.9781C244.871 22.0831 244.919 22.1119 245.057 22.1137C245.197 22.1153 245.233 22.0764 245.224 21.9831C245.217 21.9037 245.217 21.8239 245.224 21.7442C245.224 21.6883 245.171 21.6005 245.328 21.6005C245.434 21.6005 245.543 21.5835 245.591 21.6869C245.64 21.7901 245.719 21.8917 245.761 21.9985C245.823 22.1678 246.019 22.1273 246.133 22.1001C246.29 22.0612 246.179 21.9594 246.133 21.8865C246.106 21.8173 246.068 21.7505 246.022 21.6869ZM245.432 21.3853C245.202 21.404 245.231 21.304 245.214 21.1905C245.192 21.0076 245.335 21.021 245.461 21.0346C245.669 21.0346 245.843 21.0346 245.833 21.204C245.823 21.3733 245.606 21.3683 245.432 21.3853Z" fill="#EA2228"/>
<path d="M304.446 10.7886L306.895 15.2364H304.924L304.441 14.3206H301.909L301.418 15.2364H299.808L302.318 10.7886H304.446ZM302.349 13.5H304.008L303.186 11.9417L302.349 13.5Z" fill="#223063"/>
<path d="M311.206 15.2374L309.274 11.6016V15.2374H307.736V10.7896H310.592L311.965 13.4523L313.413 10.7896H316.286V15.2374H314.441V11.6016L312.47 15.2374H311.206Z" fill="#223063"/>
<path d="M323.435 11.6362H319.716V12.5486H322.647V13.3866H319.716V14.3579H323.445V15.2374H317.84V10.7896H323.435V11.6362Z" fill="#223063"/>
<path d="M326.382 13.475V15.2374H324.535V10.7896H327.978C328.493 10.7792 329.008 10.8217 329.506 10.916C329.881 10.9944 330.212 11.1551 330.461 11.3765C330.703 11.5837 330.838 11.8487 330.838 12.1228C330.838 12.6561 330.384 13.0392 329.477 13.2723L330.923 15.2393H328.894L327.693 13.4767L326.382 13.475ZM326.382 11.5809V12.715H327.507C327.775 12.7208 328.043 12.7057 328.309 12.67C328.479 12.6384 328.633 12.5703 328.754 12.4743C328.878 12.3824 328.948 12.258 328.948 12.1281C328.948 12.0658 328.931 12.0041 328.897 11.947C328.863 11.8898 328.815 11.8385 328.754 11.7956C328.638 11.7077 328.491 11.6472 328.329 11.6223C328.043 11.5929 327.756 11.5815 327.468 11.5879L326.382 11.5809Z" fill="#223063"/>
<path d="M334.085 10.7896V15.2374H332.258V10.7896H334.085Z" fill="#223063"/>
<path d="M341.977 12.4469L340.055 12.5143C340.074 12.3859 340.055 12.2559 339.997 12.1341C339.939 12.0123 339.842 11.902 339.719 11.8113C339.593 11.7206 339.443 11.6519 339.277 11.6106C339.112 11.5692 338.936 11.5563 338.761 11.5725C337.804 11.5725 337.325 12.056 337.325 13.0232C337.265 13.4249 337.403 13.8295 337.717 14.1609C337.862 14.2635 338.034 14.3428 338.22 14.394C338.409 14.4453 338.609 14.4674 338.81 14.4587C339.144 14.4779 339.475 14.401 339.733 14.2442C339.992 14.0874 340.159 13.8627 340.2 13.6171L341.977 13.6795C341.934 13.926 341.818 14.1623 341.636 14.3718C341.455 14.5813 341.213 14.7589 340.928 14.8915C340.285 15.1808 339.54 15.3252 338.786 15.307C337.872 15.3365 336.972 15.1192 336.259 14.6958C335.933 14.4881 335.676 14.2284 335.51 13.9365C335.34 13.6445 335.263 13.3281 335.285 13.0112C335.273 12.7025 335.348 12.3954 335.51 12.1106C335.672 11.8258 335.916 11.5701 336.223 11.3612C336.939 10.9088 337.862 10.6786 338.803 10.7189C340.684 10.7212 341.743 11.2972 341.977 12.4469Z" fill="#223063"/>
<path d="M346.881 10.7896L349.332 15.2374H347.359L346.878 14.3216H344.347L343.856 15.2374H342.248L344.758 10.7896H346.881ZM344.787 13.5009H346.445L345.623 11.9427L344.787 13.5009Z" fill="#223063"/>
<path d="M356.201 10.7896V15.2374H354.634L351.571 12.2335C351.571 12.3097 351.571 12.36 351.583 12.3825C351.595 12.4461 351.603 12.5103 351.603 12.5746V15.2374H350.174V10.7896H352.151L354.816 13.4143C354.796 13.3156 354.787 13.2161 354.782 13.1165V10.7896H356.201Z" fill="#223063"/>
<path d="M366.295 11.6362H362.565V12.5486H365.498V13.3866H362.565V14.3579H366.295V15.2374H360.703V10.7896H366.295V11.6362Z" fill="#223063"/>
<path d="M373.358 10.7898L371.218 12.8553L373.638 15.2376H371.516L369.946 13.624L368.372 15.2376H366.636L369.062 12.8656L366.91 10.7881H369.047L370.314 12.1403L371.649 10.7881L373.358 10.7898Z" fill="#223063"/>
<path d="M376.315 13.5862V15.2379H374.451V10.7901H377.541C378.073 10.7764 378.605 10.819 379.12 10.9165C379.494 11.0022 379.83 11.1565 380.101 11.3649C380.241 11.4687 380.353 11.5924 380.425 11.7287C380.5 11.865 380.536 12.0111 380.532 12.1579C380.529 12.3833 380.449 12.6043 380.297 12.8002C380.147 13.0061 379.922 13.1766 379.649 13.292C379.398 13.403 379.122 13.4831 378.837 13.5292C378.431 13.5758 378.017 13.5954 377.606 13.5879L376.315 13.5862ZM376.252 12.7778H377.446C377.783 12.8033 378.121 12.742 378.404 12.6045C378.489 12.5554 378.556 12.4933 378.605 12.4223C378.651 12.3514 378.677 12.2735 378.68 12.1943C378.682 12.1091 378.655 12.0248 378.602 11.9493C378.549 11.8739 378.469 11.8097 378.373 11.7631C378.09 11.642 377.763 11.5865 377.434 11.6038H376.247L376.252 12.7778Z" fill="#223063"/>
<path d="M383.387 13.475V15.2374H381.54V10.7896H384.983C385.498 10.7792 386.013 10.8217 386.511 10.916C386.886 10.9944 387.217 11.1551 387.466 11.3765C387.708 11.5837 387.843 11.8487 387.843 12.1228C387.843 12.6561 387.388 13.0392 386.484 13.2723L387.928 15.2393H385.902L384.7 13.4767L383.387 13.475ZM383.387 11.5809V12.715H384.511C384.78 12.7209 385.048 12.7058 385.314 12.67C385.486 12.6384 385.64 12.5703 385.759 12.4743C385.882 12.3825 385.952 12.258 385.952 12.1281C385.952 12.0658 385.935 12.0041 385.902 11.947C385.868 11.8898 385.819 11.8385 385.759 11.7956C385.645 11.7077 385.495 11.6472 385.333 11.6223C385.05 11.5929 384.763 11.5814 384.475 11.5879L383.387 11.5809Z" fill="#223063"/>
<path d="M394.857 11.6362H391.129V12.5486H394.059V13.3866H391.129V14.3579H394.857V15.2374H389.262V10.7896H394.857V11.6362Z" fill="#223063"/>
<path d="M401.366 11.7676L399.804 12.0654C399.683 11.887 399.49 11.7413 399.25 11.6482C399.011 11.5551 398.738 11.5194 398.472 11.5461C397.746 11.5461 397.384 11.6793 397.384 11.946C397.384 11.9997 397.403 12.0525 397.439 12.0996C397.473 12.1467 397.524 12.1866 397.584 12.2161C397.872 12.3244 398.184 12.3896 398.506 12.4082C399.1 12.4666 399.685 12.5599 400.259 12.6869C400.619 12.7748 400.943 12.9299 401.197 13.1371C401.438 13.3237 401.574 13.5715 401.576 13.8297C401.567 14.0391 401.487 14.2436 401.347 14.4249C401.204 14.6061 401.003 14.7584 400.761 14.8685C400.036 15.1987 399.19 15.3531 398.339 15.31C397.633 15.3253 396.932 15.2187 396.291 14.9984C396.027 14.9095 395.793 14.7814 395.602 14.6222C395.411 14.4631 395.263 14.2764 395.174 14.0738L396.874 13.8557C397.065 14.2712 397.596 14.4784 398.467 14.4773C398.788 14.4928 399.112 14.4457 399.403 14.3405C399.49 14.3109 399.565 14.2645 399.62 14.2063C399.673 14.1481 399.707 14.0803 399.712 14.0098C399.712 13.9444 399.685 13.8807 399.635 13.8267C399.584 13.7728 399.514 13.731 399.432 13.7067C399.086 13.6027 398.721 13.5347 398.348 13.5042C397.604 13.4474 396.881 13.2846 396.218 13.0247C396.015 12.931 395.848 12.799 395.737 12.6423C395.626 12.4857 395.573 12.3099 395.582 12.133C395.587 11.9328 395.66 11.7366 395.793 11.5619C395.923 11.3873 396.114 11.2398 396.342 11.1323C396.953 10.8387 397.674 10.6962 398.402 10.7254C399.944 10.7231 400.931 11.0704 401.366 11.7676Z" fill="#223063"/>
<path d="M408.191 11.7676L406.629 12.0654C406.509 11.887 406.315 11.7413 406.076 11.6482C405.836 11.5551 405.566 11.5194 405.297 11.5461C404.572 11.5461 404.209 11.6793 404.209 11.946C404.209 11.9997 404.229 12.0525 404.265 12.0996C404.299 12.1467 404.349 12.1866 404.41 12.2161C404.698 12.3244 405.009 12.3896 405.331 12.4082C405.926 12.4666 406.511 12.5599 407.086 12.6869C407.444 12.7748 407.768 12.9299 408.022 13.1371C408.264 13.3236 408.402 13.5715 408.402 13.8297C408.394 14.0391 408.315 14.2436 408.172 14.4249C408.029 14.6061 407.829 14.7584 407.587 14.8685C406.861 15.1987 406.015 15.3531 405.164 15.31C404.458 15.3253 403.757 15.2187 403.116 14.9984C402.855 14.9095 402.621 14.7814 402.427 14.6222C402.236 14.4631 402.091 14.2764 402.002 14.0738L403.701 13.8557C403.89 14.2712 404.422 14.4784 405.292 14.4773C405.616 14.4928 405.938 14.4457 406.23 14.3405C406.318 14.3109 406.39 14.2645 406.446 14.2063C406.501 14.1481 406.533 14.0803 406.54 14.0098C406.538 13.9444 406.511 13.8807 406.46 13.8267C406.412 13.7728 406.339 13.731 406.257 13.7067C405.911 13.6027 405.546 13.5347 405.174 13.5042C404.429 13.4474 403.706 13.2846 403.044 13.0247C402.841 12.931 402.674 12.799 402.563 12.6423C402.451 12.4857 402.398 12.3099 402.408 12.133C402.413 11.9328 402.485 11.7366 402.618 11.5619C402.751 11.3873 402.94 11.2398 403.167 11.1323C403.779 10.8387 404.502 10.6962 405.229 10.7254C406.758 10.7231 407.744 11.0704 408.191 11.7676Z" fill="#223063"/>
<path d="M299.808 29.2753L302.417 29.1021C302.487 29.8041 302.811 30.4791 303.355 31.0569C303.916 31.5603 304.644 31.9482 305.466 32.1823C306.448 32.4757 307.499 32.6205 308.561 32.6082C309.907 32.6667 311.247 32.4151 312.393 31.888C312.816 31.6871 313.162 31.4105 313.399 31.0842C313.638 30.7578 313.761 30.3923 313.757 30.0216C313.769 29.6003 313.597 29.1878 313.263 28.846C312.872 28.478 312.357 28.1937 311.767 28.0235C310.357 27.6475 308.914 27.3444 307.446 27.1164C305.988 26.9009 304.574 26.5471 303.239 26.0637C302.448 25.7426 301.779 25.2814 301.29 24.7217C300.821 24.171 300.577 23.5321 300.587 22.8814C300.572 22.2969 300.746 21.7184 301.094 21.1934C301.44 20.6684 301.953 20.2117 302.586 19.8617C304.151 19.0282 306.053 18.6153 307.978 18.6916C309.373 18.67 310.758 18.8566 312.052 19.2403C313.142 19.5632 314.085 20.1107 314.765 20.8175C315.425 21.5332 315.783 22.3762 315.8 23.2416L313.138 23.3869C313.116 22.9637 312.971 22.5489 312.714 22.17C312.458 21.791 312.096 21.4562 311.653 21.188C310.592 20.6666 309.332 20.4155 308.06 20.473C306.81 20.4153 305.563 20.6335 304.479 21.1C304.102 21.27 303.79 21.5085 303.575 21.793C303.36 22.0773 303.246 22.3978 303.246 22.7239C303.227 22.9987 303.3 23.2726 303.457 23.5221C303.614 23.7716 303.851 23.9892 304.148 24.1559C305.41 24.6732 306.788 25.0214 308.215 25.1842C309.69 25.4012 311.143 25.6967 312.56 26.0689C313.689 26.38 314.685 26.9091 315.444 27.6012C316.104 28.2534 316.45 29.0503 316.423 29.8641C316.431 30.7169 316.07 31.5492 315.396 32.241C314.692 32.9684 313.725 33.5342 312.606 33.8737C311.254 34.2707 309.808 34.4609 308.355 34.433C306.14 34.5203 303.952 34.0303 302.178 33.048C301.423 32.5916 300.819 32.0151 300.408 31.3619C299.999 30.7087 299.794 29.9951 299.808 29.2753Z" fill="#4F4F51"/>
<path d="M329.712 32.8125C328.914 33.3211 328.009 33.7305 327.033 34.0246C326.114 34.2921 325.135 34.4291 324.148 34.428C322.794 34.4798 321.457 34.1787 320.374 33.5778C319.915 33.303 319.547 32.9527 319.303 32.5546C319.059 32.1566 318.943 31.7221 318.967 31.2855C318.952 30.6853 319.182 30.0959 319.627 29.5939C320.079 29.0969 320.703 28.6998 321.435 28.4443C322.545 28.1035 323.72 27.8966 324.917 27.8314C326.472 27.7275 328.01 27.5089 329.506 27.1787L329.525 26.7009C329.567 26.4164 329.528 26.1284 329.412 25.8555C329.293 25.5827 329.102 25.3305 328.848 25.115C328.019 24.626 326.967 24.3887 325.911 24.4518C324.98 24.4046 324.049 24.558 323.234 24.8932C322.538 25.3119 322.074 25.9037 321.929 26.5571L319.407 26.3078C319.646 25.2684 320.43 24.3405 321.59 23.7264C323.019 23.125 324.651 22.8439 326.293 22.9178C327.579 22.8712 328.861 23.0541 330.028 23.451C330.812 23.71 331.426 24.1841 331.743 24.7721C332.018 25.5221 332.139 26.2984 332.1 27.0748V29.5628C332.059 30.6607 332.113 31.7596 332.262 32.8525C332.378 33.3171 332.598 33.7641 332.915 34.175H330.239C329.951 33.7485 329.772 33.2868 329.712 32.8125ZM329.501 28.6434C328.145 28.9927 326.74 29.2291 325.314 29.348C324.542 29.4044 323.783 29.5319 323.053 29.7271C322.649 29.8539 322.301 30.0628 322.052 30.3298C321.813 30.5948 321.687 30.9078 321.697 31.2268C321.684 31.4698 321.755 31.7111 321.897 31.9305C322.04 32.1498 322.25 32.3407 322.514 32.4869C323.174 32.8273 323.969 32.9934 324.774 32.958C325.64 32.9664 326.496 32.8202 327.267 32.5319C327.966 32.283 328.549 31.888 328.945 31.3962C329.366 30.7527 329.557 30.0407 329.499 29.3273L329.501 28.6434Z" fill="#4F4F51"/>
<path d="M336.801 34.1721V24.6098H334.523V23.1573H336.801V21.9851C336.75 21.3198 336.905 20.6548 337.255 20.0407C337.557 19.6076 338.043 19.2598 338.641 19.0503C339.376 18.8037 340.178 18.6853 340.983 18.7041C341.793 18.7101 342.599 18.7764 343.389 18.9016L343.007 20.5185C342.509 20.4512 342.001 20.4166 341.494 20.4148C340.904 20.3737 340.316 20.5021 339.852 20.7732C339.458 21.1641 339.279 21.6514 339.356 22.1359V23.1519H342.308V24.6046H339.366V34.1669L336.801 34.1721Z" fill="#4F4F51"/>
<path d="M354.547 30.6245L357.19 30.8617C356.847 31.9297 355.998 32.8724 354.799 33.521C353.534 34.1435 352.035 34.457 350.517 34.4178C349.559 34.4479 348.607 34.3345 347.712 34.0842C346.815 33.834 346 33.452 345.309 32.9619C344.61 32.3967 344.073 31.7326 343.73 31.0097C343.389 30.287 343.247 29.5204 343.317 28.7563C343.244 27.969 343.382 27.1786 343.728 26.4315C344.071 25.6845 344.615 24.9956 345.323 24.4054C345.986 23.911 346.781 23.5231 347.654 23.2654C348.529 23.0078 349.468 22.886 350.408 22.9078C351.32 22.8903 352.224 23.0119 353.07 23.2651C353.914 23.5185 354.678 23.8978 355.314 24.3794C356.008 24.9581 356.537 25.6329 356.876 26.3647C357.212 27.0967 357.35 27.8708 357.277 28.642L357.258 29.1406H345.959C345.954 30.1736 346.469 31.1713 347.403 31.9404C347.811 32.2465 348.297 32.4881 348.836 32.6503C349.376 32.8126 349.951 32.8919 350.534 32.8838C351.448 32.8951 352.342 32.6783 353.07 32.2683C353.798 31.8585 354.318 31.2794 354.547 30.6245ZM346.107 27.6049H354.547C354.521 26.8306 354.163 26.0822 353.522 25.4685C353.133 25.1361 352.649 24.8717 352.105 24.694C351.561 24.5165 350.971 24.4303 350.377 24.4417C349.835 24.4344 349.296 24.5063 348.791 24.6535C348.288 24.8006 347.828 25.0197 347.439 25.2988C346.61 25.912 346.133 26.7397 346.116 27.6067L346.107 27.6049Z" fill="#4F4F51"/>
<path d="M360.706 34.17V18.9668H363.469V26.507L373.851 18.9668H377.601L368.829 25.1339L377.971 34.1716H374.323L366.898 26.4829L363.457 28.9068V34.1752L360.706 34.17Z" fill="#8B8A8D"/>
<path d="M390.256 30.6246L392.899 30.8618C392.555 31.9302 391.707 32.873 390.507 33.5212C389.24 34.1441 387.741 34.4577 386.223 34.4178C385.266 34.4478 384.311 34.3344 383.416 34.0843C382.521 33.8339 381.704 33.4521 381.015 32.9619C380.316 32.3968 379.78 31.7325 379.436 31.0098C379.095 30.2869 378.955 29.5205 379.025 28.7566C378.95 27.9693 379.091 27.1787 379.434 26.4316C379.78 25.6844 380.321 24.9955 381.032 24.4055C381.694 23.9109 382.488 23.5228 383.363 23.2652C384.238 23.0075 385.176 22.8857 386.117 22.9078C387.026 22.8903 387.932 23.0118 388.776 23.2652C389.62 23.5184 390.382 23.8978 391.018 24.3794C391.711 24.9582 392.243 25.633 392.579 26.365C392.918 27.0968 393.053 27.871 392.983 28.6421L392.966 29.1407H381.68C381.675 30.1735 382.19 31.1712 383.123 31.9405C383.53 32.2464 384.018 32.4878 384.557 32.65C385.094 32.8123 385.672 32.8918 386.252 32.8839C387.166 32.8932 388.058 32.6757 388.784 32.266C389.509 31.8562 390.029 31.2782 390.256 30.6246ZM381.818 27.6052H390.256C390.232 26.8305 389.874 26.0819 389.231 25.4685C388.844 25.1362 388.358 24.8718 387.814 24.6943C387.27 24.5168 386.68 24.4305 386.085 24.4419C385.544 24.4346 385.004 24.5066 384.502 24.6537C383.996 24.8007 383.537 25.02 383.148 25.2989C382.318 25.9118 381.844 26.7398 381.827 27.6068L381.818 27.6052Z" fill="#8B8A8D"/>
<path d="M396.064 38.4119L395.783 36.6582C396.259 36.7612 396.75 36.8193 397.246 36.8312C397.71 36.8437 398.172 36.7762 398.595 36.6339C398.96 36.4944 399.265 36.2821 399.473 36.0209C399.555 35.9251 399.891 35.3157 400.483 34.1926L394.724 23.1621H397.488L400.65 29.5369C401.044 30.331 401.409 31.1812 401.745 32.0873C402.031 31.238 402.379 30.4005 402.787 29.5787L406.023 23.1621H408.602L402.858 34.3623C402.384 35.3698 401.787 36.3435 401.071 37.271C400.708 37.7087 400.198 38.0707 399.594 38.3235C399.013 38.5426 398.368 38.6528 397.717 38.6441C397.152 38.6325 396.593 38.5541 396.064 38.4119Z" fill="#8B8A8D"/>
<path d="M411.956 23.1499C411.477 23.1499 411.011 23.2549 410.612 23.4512C410.215 23.6476 409.906 23.9267 409.722 24.2533C409.538 24.5799 409.49 24.9394 409.584 25.286C409.678 25.6326 409.908 25.9508 410.246 26.2006C410.585 26.4504 411.018 26.6206 411.487 26.6894C411.956 26.7581 412.442 26.7226 412.884 26.587C413.327 26.4515 413.704 26.222 413.97 25.9279C414.236 25.634 414.376 25.2883 414.376 24.9349C414.374 24.4615 414.12 24.0078 413.665 23.6731C413.213 23.3385 412.597 23.1503 411.956 23.1499ZM411.956 23.3767C412.374 23.3767 412.783 23.4681 413.129 23.6394C413.477 23.8106 413.747 24.054 413.907 24.3387C414.067 24.6235 414.108 24.9367 414.026 25.239C413.946 25.5413 413.743 25.819 413.448 26.0369C413.153 26.2547 412.778 26.4029 412.369 26.4631C411.958 26.5233 411.535 26.4926 411.148 26.3745C410.764 26.2567 410.435 26.0569 410.203 25.8006C409.971 25.5444 409.848 25.2431 409.848 24.9349C409.848 24.5217 410.07 24.1254 410.464 23.8331C410.861 23.541 411.397 23.3767 411.956 23.3767Z" fill="#8C8D8E"/>
<path d="M411.114 25.7535V24.1175H412.011C412.152 24.113 412.292 24.1282 412.422 24.1625C412.524 24.1928 412.606 24.2478 412.657 24.3184C412.715 24.3941 412.744 24.4794 412.742 24.566C412.744 24.673 412.696 24.7771 412.601 24.8585C412.488 24.9466 412.333 25.0009 412.169 25.0109C412.229 25.0328 412.282 25.0601 412.331 25.0923C412.418 25.1582 412.493 25.2314 412.553 25.3103L412.904 25.7555H412.567L412.302 25.4091C412.222 25.3098 412.159 25.2342 412.108 25.1823C412.072 25.1407 412.026 25.1039 411.973 25.0732C411.936 25.0532 411.895 25.0384 411.852 25.03C411.801 25.0228 411.753 25.02 411.702 25.0212H411.392V25.7485L411.114 25.7535ZM411.383 24.8378H411.956C412.053 24.8403 412.149 24.8305 412.244 24.8084C412.309 24.7898 412.364 24.755 412.398 24.7096C412.435 24.6653 412.454 24.6142 412.454 24.5625C412.454 24.5271 412.447 24.4919 412.43 24.4592C412.41 24.4264 412.384 24.3967 412.35 24.3719C412.256 24.3169 412.14 24.2903 412.019 24.2976H411.383V24.8378Z" fill="#8C8C8C"/>
<path d="M527.653 34.7534C527.384 34.7534 527.116 34.7534 526.853 34.7534C526.824 34.7493 526.794 34.75 526.768 34.7551C526.741 34.7603 526.715 34.7698 526.693 34.783C526.671 34.7962 526.654 34.8128 526.642 34.8318C526.63 34.8505 526.623 34.871 526.623 34.8919C526.603 35.0687 526.487 35.2325 526.306 35.3478C526.125 35.4634 525.888 35.5212 525.648 35.5091C525.141 35.5091 524.635 35.4989 524.13 35.5091C523.874 35.4907 523.634 35.4073 523.453 35.2728C523.269 35.1384 523.156 34.9612 523.132 34.7719C523.132 34.5876 523.146 34.4034 523.132 34.2225C523.119 34.0416 523.18 33.9926 523.427 33.9943C524.819 34.0044 526.214 33.9943 527.607 34.0044C527.805 34.0044 527.837 33.9655 527.837 33.8353C527.837 33.3485 527.837 32.8632 527.837 32.3762C527.839 32.2776 527.82 32.1793 527.779 32.0855C527.655 31.8232 527.442 31.5884 527.162 31.4028C526.882 31.2173 526.543 31.0869 526.176 31.0239C526.188 31.0226 526.197 31.0226 526.209 31.0239C526.149 30.9716 526.064 30.98 525.98 30.98C525.982 30.99 525.989 30.9996 525.997 31.0087C525.977 31.0034 525.96 30.9932 525.951 30.98C525.796 30.9439 525.632 30.9323 525.472 30.946C524.764 30.946 524.058 30.946 523.352 30.946C522.81 30.9169 522.271 31.0114 521.804 31.2168C521.555 31.3096 521.34 31.443 521.171 31.6071C521.001 31.7712 520.888 31.9614 520.835 32.1634C520.818 32.1894 520.81 32.2176 520.808 32.2462C520.793 32.3332 520.793 32.4212 520.808 32.5082C520.808 33.2841 520.786 34.0619 520.82 34.838C520.818 34.8944 520.81 34.9509 520.798 35.0069C520.907 35.3469 521.159 35.6526 521.516 35.8807C521.874 36.1087 522.322 36.2473 522.793 36.2766C523.83 36.3343 524.872 36.3343 525.91 36.2766C526.4 36.2635 526.869 36.1178 527.225 35.8666C527.58 35.6153 527.798 35.2762 527.837 34.9141C527.853 34.8025 527.815 34.7482 527.653 34.7534ZM523.158 33.0626C523.17 32.9157 523.158 32.7669 523.158 32.6182C523.134 32.4091 523.216 32.201 523.388 32.0341C523.559 31.8673 523.808 31.7535 524.089 31.7153C524.377 31.678 524.672 31.7178 524.923 31.8271C525.177 31.9364 525.366 32.1084 525.462 32.3121C525.47 32.325 525.479 32.3368 525.491 32.3476V33.2235C524.788 33.2235 524.082 33.2235 523.376 33.2235C523.202 33.2335 523.146 33.1844 523.158 33.0626Z" fill="#0C9CD8"/>
<path d="M475.167 29.4156C474.48 29.4156 473.774 29.4156 473.08 29.424C472.955 29.4747 473.02 29.5626 473.02 29.6302C473.02 31.3895 473.02 33.1501 473.02 34.9117C472.947 35.0577 472.829 35.1879 472.669 35.2906C472.512 35.3934 472.324 35.4654 472.118 35.4999C471.913 35.5343 471.7 35.5304 471.497 35.4881C471.294 35.446 471.11 35.3668 470.96 35.2583C470.805 35.1686 470.781 35.0215 470.677 34.9083C470.677 34.4009 470.677 33.894 470.677 33.3868C470.677 33.2668 470.648 33.2176 470.462 33.2176C469.773 33.2277 469.077 33.2177 468.383 33.2279C468.245 33.309 468.315 33.4204 468.315 33.5168C468.315 34.0511 468.269 34.587 468.349 35.1195C468.409 35.4438 468.629 35.7404 468.965 35.9522C469.304 36.1642 469.737 36.2765 470.179 36.2676C470.965 36.3076 471.753 36.3165 472.541 36.2947C472.957 36.3056 473.375 36.2842 473.784 36.2304C473.825 36.237 473.866 36.2361 473.907 36.2283C473.946 36.2202 473.982 36.2052 474.014 36.1847C474.396 36.1317 474.744 35.9822 474.993 35.7613C475.244 35.5406 475.385 35.2624 475.387 34.9743C475.387 33.172 475.387 31.3683 475.387 29.5643C475.382 29.4477 475.327 29.4138 475.167 29.4156Z" fill="#0C9CD8"/>
<path d="M486.037 32.0605C485.597 31.8103 485.228 31.4991 484.949 31.1443C484.957 31.0844 484.935 31.0246 484.889 30.9753V30.9126C484.942 30.8475 484.962 30.7712 484.949 30.6962C484.993 30.6142 485.053 30.5364 485.124 30.4646C485.257 30.3675 485.419 30.2923 485.595 30.2446C485.772 30.1971 485.96 30.1778 486.149 30.1882C486.337 30.1985 486.519 30.2384 486.683 30.305C486.85 30.3716 486.995 30.4635 487.106 30.5744L487.169 30.6555C487.169 30.8905 487.309 30.9937 487.626 30.9532C487.778 30.9442 487.933 30.9442 488.085 30.9532C488.487 30.9532 488.487 30.9532 488.388 30.6421C488.388 30.583 488.388 30.5221 488.32 30.4732C488.238 30.2253 488.059 30.0007 487.805 29.828C487.551 29.6553 487.234 29.5421 486.891 29.5026C486.852 29.4809 486.806 29.4657 486.756 29.4578C486.707 29.45 486.656 29.4496 486.608 29.4569C485.895 29.3978 485.174 29.3978 484.461 29.4569C484.42 29.4507 484.379 29.4516 484.34 29.4593C484.299 29.4669 484.263 29.481 484.231 29.5009C483.915 29.5466 483.617 29.6448 483.359 29.788C483.102 29.9312 482.892 30.1157 482.744 30.3276C482.522 30.6685 482.449 31.0521 482.534 31.4251C482.619 31.7982 482.858 32.1425 483.221 32.4105C483.997 32.9803 484.785 33.54 485.571 34.1012C485.817 34.2466 485.994 34.4451 486.079 34.6691V34.9091C486.052 35.0605 485.958 35.201 485.81 35.3075C485.663 35.4139 485.469 35.4803 485.264 35.4959C485.02 35.5342 484.768 35.5342 484.524 35.4959C484.219 35.4216 483.791 35.3421 483.782 35.0598C483.77 34.6896 483.484 34.7519 483.189 34.7571C483.027 34.7571 482.863 34.7571 482.703 34.7571C482.578 34.7571 482.527 34.7925 482.537 34.8821C482.529 35.1334 482.619 35.3812 482.793 35.5967C482.967 35.8125 483.221 35.9871 483.525 36.1012C483.946 36.2319 484.398 36.2964 484.855 36.2905C485.467 36.3234 486.079 36.3082 486.685 36.2448C486.724 36.2496 486.763 36.2475 486.799 36.2391C486.835 36.2305 486.869 36.2159 486.896 36.1959C487.179 36.1446 487.445 36.0494 487.674 35.9169C487.904 35.7842 488.093 35.6171 488.228 35.4266C488.438 35.1082 488.521 34.7519 488.463 34.4003C488.407 34.0485 488.214 33.7166 487.909 33.4435C487.317 32.9596 486.693 32.498 486.037 32.0605Z" fill="#0C9CD8"/>
<path d="M503.059 32.4768C503.267 32.4768 503.472 32.4768 503.68 32.4768C504.067 32.4768 504.067 32.4768 504.014 32.1961C504.004 32.1698 503.99 32.1443 503.975 32.12C503.98 32.0963 503.98 32.0716 503.97 32.0486C503.958 32.0256 503.941 32.0047 503.917 31.9881C503.835 31.7413 503.656 31.5179 503.402 31.3459C503.151 31.1738 502.834 31.0609 502.493 31.0213C502.462 31.0022 502.425 30.9884 502.387 30.9807C502.346 30.9732 502.304 30.972 502.263 30.9773C502.14 30.9382 502.002 30.927 501.872 30.9452C501.088 30.8931 500.298 30.9411 499.536 31.0872C499.135 31.1979 498.787 31.3945 498.535 31.652C498.286 31.9095 498.146 32.2159 498.134 32.5325C498.134 33.2595 498.134 33.9848 498.134 34.7102C498.126 34.9113 498.177 35.1111 498.284 35.2963C498.39 35.4814 498.55 35.6475 498.75 35.7836C499.169 36.0877 499.725 36.2681 500.31 36.2907C501.001 36.3273 501.695 36.3125 502.384 36.2468C502.466 36.2468 502.549 36.247 502.612 36.1997C502.728 36.2148 502.8 36.1404 502.899 36.1234C503.23 36.0247 503.513 35.8566 503.716 35.6402C503.92 35.4236 504.033 35.1681 504.043 34.9047C504.043 34.7879 503.99 34.7575 503.849 34.7627C503.639 34.7727 503.429 34.7727 503.218 34.7627C502.972 34.7439 502.817 34.7897 502.795 34.9925C502.776 35.0766 502.723 35.1547 502.645 35.2173C502.512 35.3429 502.333 35.4379 502.13 35.4904C501.927 35.5429 501.71 35.5507 501.499 35.5132C501.272 35.4979 501.054 35.4288 500.883 35.3163C500.711 35.2038 500.59 35.0536 500.542 34.8877C500.542 34.0288 500.549 33.1689 500.559 32.3079C500.643 32.1352 500.801 31.9866 501.006 31.8829C501.212 31.7791 501.456 31.7256 501.705 31.7295C501.954 31.7134 502.205 31.7631 502.411 31.8697C502.616 31.9763 502.766 32.1332 502.829 32.3127L502.865 32.4261C502.88 32.5072 502.984 32.4768 503.059 32.4768Z" fill="#0C9CD8"/>
<path d="M519.739 31.0865C519.739 30.9783 519.696 30.936 519.544 30.9394C519.183 30.9394 518.818 30.9394 518.458 30.9394C517.962 30.9164 517.471 31.0233 517.07 31.2414C516.671 31.4592 516.388 31.7746 516.272 32.1314H516.195C516.195 31.7832 516.195 31.4348 516.195 31.0882C516.195 30.9682 516.161 30.9326 515.997 30.9326C515.358 30.9326 514.72 30.941 514.079 30.9326C513.876 30.9326 513.821 30.9732 513.821 31.1221C513.821 32.7776 513.821 34.4339 513.821 36.0907C513.821 36.2598 513.912 36.2987 514.101 36.2987C514.751 36.2987 515.399 36.2903 516.047 36.2987C516.176 36.2987 516.212 36.2715 516.205 36.1769C516.19 35.9453 516.205 35.7137 516.192 35.4805C516.192 34.8042 516.192 34.128 516.192 33.4517C516.173 33.3355 516.185 33.2171 516.229 33.1044C516.272 32.9917 516.347 32.8867 516.449 32.7964C516.55 32.7058 516.676 32.6317 516.816 32.5783C516.959 32.5251 517.114 32.4937 517.271 32.4864C518.025 32.4746 518.775 32.4762 519.531 32.4864C519.674 32.4864 519.737 32.4744 519.735 32.3578C519.727 31.9328 519.73 31.5092 519.739 31.0865Z" fill="#0C9CD8"/>
<path d="M480.786 29.4098C480.721 29.4039 480.655 29.4152 480.6 29.4418C480.544 29.4686 480.503 29.5086 480.486 29.5552C479.841 30.5966 479.188 31.6364 478.54 32.6778C478.518 32.6939 478.501 32.7132 478.489 32.7343C478.477 32.7555 478.47 32.7782 478.472 32.8012C478.446 32.8221 478.424 32.8448 478.404 32.8689L476.361 36.147C476.328 36.1841 476.279 36.2196 476.308 36.272C476.681 36.3137 477.06 36.3137 477.432 36.272L477.498 36.2316C477.527 36.1791 477.549 36.1266 477.58 36.0777C478.257 35.0125 478.934 33.9475 479.609 32.8823C480.068 32.1543 480.525 31.4257 480.982 30.6964L481.787 29.4082C481.427 29.4132 481.105 29.4218 480.786 29.4098Z" fill="#0C9CD8"/>
<path d="M512.276 30.9494C511.618 30.9494 510.958 30.9496 510.303 30.936C510.027 30.936 509.979 30.9985 509.981 31.1828C509.981 32.3664 509.981 33.5362 509.981 34.713C509.981 34.8748 509.916 35.0326 509.79 35.1651C509.664 35.2975 509.485 35.3976 509.277 35.4518C509.024 35.5212 508.743 35.5317 508.48 35.4819C508.216 35.4321 507.979 35.3242 507.8 35.1726C507.8 35.1448 507.793 35.1173 507.774 35.0926C507.757 35.068 507.73 35.0473 507.699 35.0325C507.699 34.9884 507.699 34.9428 507.645 34.9107C507.645 33.6776 507.645 32.4459 507.645 31.2151C507.645 31.1373 507.699 31.046 507.59 30.98C507.527 30.9159 507.433 30.9428 507.36 30.9428C506.758 30.9428 506.156 30.9428 505.556 30.9428C505.327 30.9428 505.288 30.9935 505.288 31.1457C505.288 32.3293 505.312 33.5007 505.288 34.6775C505.271 34.9785 505.377 35.2764 505.595 35.5316C505.813 35.7867 506.129 35.9871 506.504 36.106C507.21 36.2991 507.969 36.3639 508.716 36.2951C508.973 36.3257 509.236 36.2923 509.461 36.2005C509.688 36.1085 509.87 35.9635 509.971 35.7882C509.998 35.9146 510.005 36.0425 510 36.1701C510 36.2546 510.034 36.3105 510.153 36.3089C510.866 36.3089 511.579 36.3442 512.292 36.2903C512.421 36.275 512.387 36.1989 512.387 36.1414C512.387 34.461 512.387 32.7803 512.387 31.1C512.37 31.0357 512.418 30.9528 512.276 30.9494Z" fill="#0C9CD8"/>
<path d="M492.343 34.006C493.745 34.006 495.145 34.006 496.548 34.006C496.739 34.006 496.818 33.974 496.811 33.8201C496.799 33.3687 496.811 32.9173 496.811 32.4676C496.818 32.3337 496.794 32.2001 496.741 32.0719C496.586 31.7614 496.311 31.4907 495.953 31.2924C495.593 31.0942 495.165 30.9769 494.717 30.9544C493.753 30.9307 492.79 30.9544 491.826 30.9544C491.76 30.9598 491.698 30.9701 491.635 30.9849C491.552 30.9849 491.468 30.9765 491.405 31.0289C491.364 31.0237 491.323 31.0248 491.284 31.0324C491.245 31.0399 491.209 31.0539 491.175 31.0728C491.154 31.0701 491.132 31.0724 491.11 31.0798C491.091 31.0869 491.074 31.0987 491.062 31.1133C490.839 31.1549 490.641 31.248 490.493 31.3787C490.44 31.3898 490.389 31.4098 490.348 31.4369C490.305 31.464 490.271 31.498 490.249 31.536C490.01 31.6871 489.853 31.8964 489.802 32.126C489.72 32.2448 489.688 32.379 489.71 32.5115C489.71 33.2487 489.71 33.9867 489.71 34.7262C489.691 34.8589 489.722 34.993 489.8 35.1133C489.795 35.1764 489.812 35.2398 489.85 35.2958C490 35.5655 490.249 35.799 490.568 35.9703C490.888 36.1417 491.265 36.244 491.659 36.2662C492.858 36.3615 494.069 36.3433 495.261 36.2123C495.612 36.1503 495.929 36.0169 496.18 35.8273C496.432 35.6376 496.606 35.3998 496.681 35.1405C496.71 35.1187 496.731 35.0917 496.743 35.0621C496.756 35.0324 496.756 35.0012 496.746 34.9712C496.86 34.8023 496.792 34.7432 496.543 34.7533C496.291 34.7635 496.066 34.7533 495.827 34.7533C495.684 34.7533 495.61 34.7703 495.583 34.8953C495.564 35.0698 495.455 35.2317 495.276 35.3465C495.097 35.4614 494.865 35.5196 494.628 35.5089C494.096 35.5173 493.562 35.5089 493.025 35.5089C492.948 35.518 492.868 35.5099 492.798 35.4853C492.563 35.4151 492.367 35.2908 492.239 35.1314C492.111 34.9721 492.055 34.7858 492.08 34.601C492.099 34.4678 492.099 34.3337 492.08 34.2005C492.08 34.0533 492.128 34.006 492.343 34.006ZM492.094 32.574C492.089 32.4669 492.111 32.3601 492.162 32.2596C492.213 32.159 492.29 32.0667 492.389 31.9882C492.488 31.9096 492.607 31.8464 492.74 31.8017C492.87 31.7573 493.013 31.7324 493.158 31.7287C493.436 31.7055 493.714 31.7562 493.944 31.8715C494.173 31.9869 494.34 32.1594 494.413 32.3578C494.42 32.3705 494.432 32.3819 494.444 32.3914V33.2367C493.741 33.2367 493.032 33.2367 492.326 33.2367C492.147 33.2367 492.096 33.1944 492.096 33.0676C492.111 32.9033 492.111 32.7383 492.094 32.574Z" fill="#0C9CD8"/>
<path d="M528.555 11.5664H467.582C466.69 11.5669 465.834 11.8286 465.206 12.2943C464.575 12.7599 464.219 13.3914 464.219 14.0499V37.6205C464.219 38.2791 464.575 38.9105 465.206 39.3761C465.834 39.8418 466.69 40.1036 467.582 40.1041H528.555C529.447 40.1032 530.3 39.8412 530.931 39.3757C531.562 38.9102 531.915 38.2789 531.918 37.6205V14.0499C531.915 13.3915 531.562 12.7605 530.931 12.2949C530.3 11.8294 529.447 11.5673 528.555 11.5664ZM528.555 39.0864H467.582C467.055 39.0859 466.55 38.9312 466.178 38.6561C465.805 38.3811 465.595 38.0079 465.595 37.6189V27.3298H530.542V37.6189C530.542 38.0079 530.332 38.3811 529.959 38.6561C529.587 38.9312 529.082 39.0859 528.555 39.0864Z" fill="#0C9CD8"/>
<path d="M528.431 11.5381H467.703C466.78 11.539 465.892 11.8105 465.24 12.2932C464.587 12.7759 464.219 13.4304 464.219 14.1128V27.3554H531.915V14.1128C531.915 13.4305 531.548 12.7764 530.893 12.2938C530.24 11.8112 529.355 11.5394 528.431 11.5381Z" fill="#1F4285"/>
<path d="M485.377 21.963V13.7651H488.977V21.963C489.011 22.7605 488.68 23.5432 488.042 24.1866C487.403 24.83 486.49 25.2969 485.45 25.5132C484.7 25.6982 483.915 25.7884 483.124 25.7803C482.055 25.8739 480.972 25.7314 480.015 25.3701C479.055 25.0091 478.262 24.4457 477.737 23.7516C477.435 23.2364 477.292 22.6778 477.319 22.1167H480.921C480.921 23.2173 481.557 23.8175 483.148 23.8175C484.642 23.8141 485.377 23.0298 485.377 21.963Z" fill="white"/>
<path d="M500.104 21.6641H503.39C503.366 22.5096 502.986 23.3291 502.307 24.0096C501.628 24.6901 500.68 25.1982 499.592 25.4644C498.755 25.6876 497.868 25.7948 496.978 25.7807C495.595 25.8301 494.234 25.5253 493.124 24.9176C492.012 24.31 491.219 23.4367 490.88 22.4467C490.556 21.6809 490.402 20.8819 490.421 20.08V19.3141C490.266 18.2434 490.554 17.163 491.243 16.2144C491.932 15.2657 492.994 14.493 494.287 13.9971C495.148 13.7228 496.076 13.5862 497.012 13.5963C497.807 13.5445 498.61 13.6133 499.369 13.7984C500.129 13.9834 500.827 14.2807 501.427 14.6724C502.024 15.064 502.508 15.5419 502.846 16.0763C503.187 16.6108 503.376 17.1907 503.4 17.7808H500.116C500.15 17.4779 500.092 17.1728 499.947 16.8886C499.802 16.6044 499.57 16.3482 499.273 16.1386C498.975 15.9291 498.615 15.7716 498.223 15.678C497.832 15.5845 497.418 15.5573 497.01 15.5982C494.418 15.5982 493.724 17.1636 493.724 19.2973V20.0816C493.724 22.0985 494.282 23.7807 496.964 23.7807C497.367 23.8264 497.778 23.805 498.17 23.7178C498.559 23.6305 498.917 23.48 499.219 23.2769C499.522 23.0739 499.756 22.8239 499.909 22.5448C500.063 22.2655 500.129 21.9648 500.104 21.6641Z" fill="white"/>
<path d="M510.759 25.6128H504.5V13.7651H510.223C512.94 13.7651 514.988 14.2723 515.885 15.5808C516.175 16.0277 516.318 16.5191 516.301 17.0145C516.32 17.5617 516.103 18.0994 515.682 18.5492C515.259 18.9991 514.652 19.3375 513.951 19.515C514.754 19.6373 515.469 19.9687 515.97 20.4489C516.468 20.9292 516.717 21.526 516.669 22.1303C516.678 24.58 514.258 25.6128 510.759 25.6128ZM510.232 15.7482H507.885V18.7305H510.373C511.889 18.7135 512.926 18.3128 512.926 17.263C512.923 16.0981 511.913 15.7482 510.232 15.7482ZM510.9 20.4466H507.885V23.6451H510.762C512.237 23.6451 513.298 23.1634 513.298 22.1117C513.293 20.9807 512.464 20.4466 510.9 20.4466Z" fill="white"/>
<mask id="mask0_48_37" style="mask-type:luminance" maskUnits="userSpaceOnUse" x="580" y="0" width="126" height="50">
<path d="M706 0H580.274V50H706V0Z" fill="white"/>
</mask>
<g mask="url(#mask0_48_37)">
<path d="M666.108 27.3206L667.366 27.5991C667.284 27.8622 667.158 28.0788 666.969 28.2491C666.781 28.4193 666.57 28.5586 666.297 28.6359C666.026 28.7288 665.69 28.7752 665.272 28.7752C664.769 28.7752 664.37 28.7288 664.034 28.6204C663.72 28.5122 663.449 28.3264 663.219 28.0479C662.987 27.7848 662.861 27.4289 662.861 27.0111C662.861 26.4541 663.072 26.0209 663.468 25.7114C663.867 25.402 664.455 25.2627 665.187 25.2627C665.775 25.2627 666.215 25.3556 666.549 25.5257C666.885 25.6959 667.136 25.9589 667.284 26.3304L666.026 26.5314C665.983 26.4232 665.942 26.3457 665.879 26.2993C665.794 26.222 665.712 26.1602 665.586 26.1138C665.461 26.0673 665.335 26.0518 665.209 26.0518C664.895 26.0518 664.643 26.1447 664.474 26.3457C664.348 26.485 664.285 26.7172 664.285 27.0111C664.285 27.3825 664.37 27.6456 664.518 27.7848C664.663 27.9241 664.895 28.0014 665.166 28.0014C665.439 28.0014 665.649 27.9397 665.775 27.8313C665.942 27.692 666.046 27.5373 666.108 27.3206Z" fill="#225E63"/>
<path d="M667.869 27.011C667.869 26.454 668.079 26.0206 668.497 25.7112C668.918 25.4017 669.503 25.2471 670.257 25.2471C671.034 25.2471 671.621 25.4017 672.039 25.6958C672.458 26.0053 672.668 26.423 672.668 26.9801C672.668 27.3824 672.583 27.7074 672.395 27.9549C672.206 28.2024 671.955 28.4037 671.599 28.543C671.263 28.6822 670.823 28.7596 670.32 28.7596C669.798 28.7596 669.377 28.6976 669.022 28.5739C668.686 28.4501 668.415 28.2644 668.183 27.9858C667.953 27.7074 667.869 27.4133 667.869 27.011ZM669.295 27.011C669.295 27.3515 669.377 27.599 669.547 27.7539C669.713 27.9085 669.943 27.9858 670.257 27.9858C670.572 27.9858 670.804 27.9085 670.971 27.7692C671.138 27.6146 671.222 27.3515 671.222 26.9801C671.222 26.6551 671.137 26.423 670.949 26.2839C670.782 26.129 670.531 26.0671 670.238 26.0671C669.943 26.0671 669.713 26.1446 669.547 26.2992C669.377 26.423 669.295 26.6706 669.295 27.011Z" fill="#225E63"/>
<path d="M673.401 25.3091H675.267L675.978 27.3825L676.691 25.3091H678.555V28.7132H677.383V26.1135L676.481 28.7132H675.434L674.532 26.1135V28.7132H673.359V25.3091H673.401Z" fill="#225E63"/>
<path d="M679.472 25.3091H681.839C682.363 25.3091 682.741 25.4018 682.992 25.5875C683.244 25.7732 683.369 26.0209 683.369 26.3612C683.369 26.7016 683.222 26.9802 682.951 27.1659C682.678 27.3669 682.238 27.4598 681.672 27.4598H680.898V28.7287H679.472V25.3091ZM680.898 26.7635H681.254C681.527 26.7635 681.713 26.7327 681.839 26.6552C681.945 26.5778 682.008 26.5005 682.008 26.3921C682.008 26.2839 681.965 26.191 681.861 26.1135C681.757 26.0362 681.59 26.0053 681.317 26.0053H680.918V26.7635H680.898Z" fill="#225E63"/>
<path d="M684.126 25.3091H685.55V27.8777H687.772V28.7132H684.126V25.3091Z" fill="#225E63"/>
<path d="M688.485 25.3091H689.909V28.7132H688.485V25.3091Z" fill="#225E63"/>
<path d="M693.763 28.1406H692.148L691.919 28.6976H690.473L692.211 25.2935H693.763L695.502 28.6976H694.015L693.763 28.1406ZM693.468 27.4133L692.966 26.1908L692.463 27.4133H693.468Z" fill="#225E63"/>
<path d="M695.942 25.3091H697.262L699 27.1968V25.3091H700.342V28.7132H699L697.281 26.8409V28.7132H695.942V25.3091Z" fill="#225E63"/>
<path d="M700.971 25.3091H705.308V26.1446H703.863V28.7132H702.436V26.1446H700.993V25.3091H700.971Z" fill="#225E63"/>
<path d="M648.971 30.4927L653.098 29.5334L651.759 27.3361C650.772 28.2491 649.788 29.425 648.971 30.4927ZM647.569 20.4504L639.481 7.14307L580.274 9.61885L596.679 42.6704L628.25 35.3206C626.239 33.1852 625.506 30.6475 627.832 29.4097C630.431 28.017 634.348 29.6263 636.841 31.9009C639.252 28.9299 646.017 22.0132 647.569 20.4504Z" fill="#225E63"/>
<path d="M637.636 16.7601C640.11 16.7601 642.121 15.3675 642.121 13.6344C642.121 11.9014 640.11 10.5088 637.636 10.5088C635.165 10.5088 633.154 11.9014 633.154 13.6344C633.154 15.352 635.165 16.7601 637.636 16.7601ZM633.971 18.1063H641.304V32.2647H633.971V18.1063Z" fill="#FEFEFE"/>
<path d="M630.349 22.2378C630.412 22.2534 630.453 22.2378 630.453 22.1914V18.6016C630.453 18.5551 630.412 18.5087 630.349 18.4778C630.349 18.4778 629.384 18.0135 626.452 17.8898C626.304 17.8279 623.727 17.8124 623.035 17.8898C612.351 18.5242 611.954 24.2339 611.954 24.4816V25.8742C611.954 26.0444 611.954 31.878 623.035 32.3885C624.126 32.4505 626.241 32.3885 626.452 32.3885C629.007 32.3885 630.767 31.816 630.767 31.816C630.83 31.8005 630.871 31.7541 630.871 31.7076V28.35C630.871 28.3035 630.83 28.288 630.789 28.3191C630.789 28.3191 629.991 28.7832 626.515 29.0462C625.53 29.1237 625.047 29.0926 624.691 29.0462C619.747 28.4273 619.517 25.7659 619.517 25.7659C619.517 25.7194 619.496 25.6421 619.496 25.611V24.5898C619.496 24.5435 619.496 24.466 619.517 24.4351C619.517 24.4351 619.851 21.5725 624.691 21.263H626.515C628.63 21.4642 630.349 22.2378 630.349 22.2378Z" fill="#FEFEFE"/>
<path d="M591.589 32.2183C591.589 32.2647 591.63 32.2956 591.693 32.2956H598.838C598.901 32.2956 598.942 32.2647 598.942 32.2183V28.1022C598.942 28.0558 598.985 28.0249 599.048 28.0249C599.048 28.0249 610.465 28.6284 610.465 22.9806C610.465 18.5086 603.301 18.029 600.953 18.1063C600.912 18.1063 591.693 18.1063 591.693 18.1063C591.63 18.1063 591.589 18.1372 591.589 18.1836V32.2183ZM598.816 24.8838V21.1856H600.576C600.576 21.1856 603.113 21.2629 603.32 22.5472C603.364 22.64 603.364 23.2745 603.32 23.3054C602.987 24.8065 600.787 24.8838 600.787 24.8838H598.816Z" fill="#FEFEFE"/>
<path d="M637.844 39.0963C638.432 39.0963 638.894 39.0963 639.646 38.8486C642.245 37.8429 651.024 22.0134 660.284 17.1391C660.347 17.1082 660.41 17.0618 660.451 17.0154C660.514 16.9535 660.514 16.8916 660.514 16.8916C660.514 16.8916 660.514 16.5666 659.153 16.5666C650.917 16.3964 642.349 29.1621 637.844 34.2066C637.782 34.2684 637.489 34.2066 637.489 34.2066C637.489 34.2066 634.472 31.5761 631.853 30.5702C631.79 30.5548 631.498 30.4773 631.183 30.4929C630.973 30.4929 629.757 30.6786 629.193 31.1118C628.521 31.6379 628.543 31.932 628.543 32.5664C628.543 32.6127 628.584 32.8295 628.669 32.9377C629.319 33.7732 632.23 36.7443 634.638 38.3845C634.996 38.5855 635.562 39.0963 637.844 39.0963Z" fill="#2BBC5D"/>
<path d="M662.716 12.3584H669.566C670.927 12.3584 672.018 12.4977 672.835 12.7607C673.674 13.0392 674.365 13.4261 674.888 13.9212C675.432 14.4319 675.831 15.0199 676.06 15.6852C676.312 16.3506 676.437 17.0624 676.437 17.8206C676.437 18.9965 676.249 19.9096 675.893 20.5594C675.538 21.2094 675.035 21.7508 674.385 22.1996C673.737 22.633 673.045 22.9269 672.31 23.0817C671.304 23.2828 670.383 23.3756 669.566 23.3756H662.716V12.3584ZM667.325 14.8497V20.8688H668.456C669.421 20.8688 670.11 20.7915 670.509 20.6367C670.908 20.4821 671.242 20.2035 671.474 19.8167C671.703 19.4299 671.829 18.7799 671.829 17.898C671.829 16.722 671.578 15.9328 671.053 15.4995C670.531 15.0663 669.692 14.8497 668.478 14.8497H667.325Z" fill="#225E63"/>
<path d="M677.719 19.7383L682.117 19.5372C682.223 20.0633 682.412 20.4656 682.704 20.7442C683.185 21.1929 683.858 21.4095 684.738 21.4095C685.386 21.4095 685.91 21.3011 686.266 21.069C686.621 20.837 686.81 20.574 686.81 20.2799C686.81 20.0013 686.643 19.7383 686.307 19.5063C685.973 19.2742 685.178 19.0729 683.94 18.8718C681.909 18.5313 680.485 18.0827 679.605 17.5256C678.725 16.9686 678.304 16.2568 678.304 15.3902C678.304 14.8177 678.536 14.2916 678.976 13.781C679.416 13.2704 680.086 12.8835 680.988 12.5895C681.887 12.2955 683.103 12.1562 684.653 12.1562C686.558 12.1562 688.026 12.4193 689.01 12.9454C690.016 13.4715 690.603 14.3071 690.792 15.4521L686.433 15.6378C686.307 15.1427 686.077 14.7868 685.7 14.5547C685.323 14.3226 684.82 14.2142 684.172 14.2142C683.626 14.2142 683.229 14.2916 682.956 14.4618C682.683 14.632 682.557 14.8332 682.557 15.0808C682.557 15.251 682.663 15.4212 682.893 15.5604C683.103 15.6997 683.626 15.839 684.443 15.9628C686.454 16.2877 687.9 16.6127 688.78 16.9376C689.66 17.2626 690.289 17.6803 690.688 18.1601C691.084 18.6397 691.273 19.1967 691.273 19.8002C691.273 20.512 691 21.1618 690.478 21.7499C689.953 22.3534 689.199 22.802 688.256 23.1115C687.313 23.4211 686.099 23.5758 684.653 23.5758C682.117 23.5758 680.359 23.2199 679.373 22.4926C678.41 21.7654 677.864 20.8524 677.719 19.7383Z" fill="#225E63"/>
<path d="M692.446 19.7388L696.844 19.5376C696.95 20.0637 697.139 20.466 697.431 20.7446C697.912 21.1933 698.582 21.4099 699.462 21.4099C700.112 21.4099 700.637 21.3017 700.993 21.0696C701.348 20.8374 701.537 20.5744 701.537 20.2805C701.537 20.0019 701.37 19.7388 701.034 19.5067C700.7 19.2746 699.902 19.0735 698.667 18.8722C696.636 18.5319 695.209 18.0831 694.329 17.5261C693.471 16.969 693.031 16.2572 693.031 15.3907C693.031 14.8182 693.26 14.2921 693.7 13.7815C694.141 13.2708 694.813 12.884 695.712 12.59C696.614 12.296 697.83 12.1567 699.38 12.1567C701.285 12.1567 702.753 12.4198 703.737 12.9459C704.743 13.472 705.33 14.3076 705.519 15.4526L701.159 15.6383C701.034 15.1431 700.804 14.7873 700.427 14.5551C700.05 14.323 699.547 14.2147 698.896 14.2147C698.352 14.2147 697.956 14.2921 697.683 14.4623C697.409 14.6325 697.284 14.8337 697.284 15.0812C697.284 15.2515 697.39 15.4217 697.62 15.5609C697.83 15.7002 698.352 15.8395 699.17 15.9632C701.181 16.2882 702.627 16.6131 703.507 16.9381C704.387 17.263 705.016 17.6808 705.412 18.1605C705.811 18.6401 706 19.1972 706 19.8006C706 20.5124 705.727 21.1624 705.204 21.7505C704.68 22.3538 703.925 22.8026 702.982 23.1121C702.04 23.4215 700.826 23.5763 699.38 23.5763C696.844 23.5763 695.083 23.2205 694.099 22.4931C693.115 21.7658 692.571 20.853 692.446 19.7388Z" fill="#225E63"/>
</g>
</svg>
